<?xml version="1.0" encoding="UTF-8"?>
<svg width="450px" height="405px" viewBox="0 0 450 405" version="1.1" xmlns="http://www.w3.org/2000/svg" xmlns:xlink="http://www.w3.org/1999/xlink">
    <!-- Generator: Sketch 57.1 (83088) - https://sketch.com -->
    <title>Group 2</title>
    <desc>Created with Sketch.</desc>
    <g id="Device-Overview" stroke="none" stroke-width="1" fill="none" fill-rule="evenodd">
        <g id="Device-Overview---Linea-Pro-5" transform="translate(-831.000000, -1452.000000)">
            <g id="Group-11" transform="translate(0.000000, 1398.000000)">
                <g id="Group-7">
                    <g id="Group-2" transform="translate(831.000000, 54.000000)">
                        <path d="M267.965625,187.295 L253.790625,197.42 C250.820625,192.965 247.580625,189.86 242.585625,188.51 L242.585625,212 C260.675625,216.995 268.910625,224.015 268.910625,239.81 C268.910625,253.58 260.810625,264.515 243.665625,266.81 L243.665625,281.66 L228.005625,281.66 L228.005625,266.675 C216.260625,265.19 207.485625,260.33 200.870625,251.555 L215.315625,241.43 C218.960625,246.155 223.010625,249.395 228.950625,250.61 L228.950625,226.31 C211.940625,221.315 203.435625,212.945 203.435625,198.095 C203.435625,185.135 210.995625,174.47 228.005625,172.175 L228.005625,156.38 L243.665625,156.38 L243.665625,172.31 C254.330625,173.93 262.565625,179.06 267.965625,187.295 Z M250.010625,240.755 C250.010625,236.435 248.120625,233.33 242.585625,230.63 L242.585625,250.34 C247.850625,248.72 250.010625,244.805 250.010625,240.755 Z M222.335625,197.96 C222.335625,202.415 224.495625,205.385 228.950625,207.68 L228.950625,188.645 C224.630625,190.13 222.335625,193.505 222.335625,197.96 Z" id="$" fill-opacity="0.125409747" fill="#242424" fill-rule="nonzero"></path>
                        <g id="VP-Icon-/-pistol-grip" transform="translate(224.000000, 0.000000)">
                            <g id="VP-Icon-/-.background" fill-rule="nonzero">
                                <path d="M19.2000008,0 L86.4000034,0 C97.0038711,0 105.600004,8.59613314 105.600004,19.2000008 L105.600004,86.4000034 C105.600004,97.0038711 97.0038711,105.600004 86.4000034,105.600004 L19.2000008,105.600004 C8.59613314,105.600004 0,97.0038711 0,86.4000034 L0,19.2000008 C0,8.59613314 8.59613314,0 19.2000008,0 Z" id="Path" fill="#ECECEC"></path>
                                <path d="M19.2000008,2.4000001 C9.9216166,2.4000001 2.4000001,9.9216166 2.4000001,19.2000008 L2.4000001,86.4000001 C2.4000001,95.6783876 9.9216166,103.200004 19.2000008,103.200004 L86.4000001,103.200004 C95.6783876,103.200004 103.200004,95.6783876 103.200004,86.4000001 L103.200004,19.2000008 C103.200004,9.9216166 95.6783876,2.4000001 86.4000001,2.4000001 L19.2000008,2.4000001 Z" id="Path" fill="#242424"></path>
                            </g>
                            <g id="Group" stroke-width="1" fill-rule="evenodd" transform="translate(25.200001, 26.400001)">
                                <path d="M27.8731999,20.0343821 C30.198531,21.5008581 32.0611569,23.6888875 33.1142112,26.3622864 L33.1142112,26.3622864 L36.2486095,34.319613 C37.3085816,37.0105742 37.3177864,39.9159589 36.4083862,42.5190623 L32.7892531,33.9244744 C32.540191,33.3329519 32.0645792,32.8658325 31.4686658,32.6274671 L31.4686658,32.6274671 L29.9587541,32.0235024 C29.6071222,31.8828497 29.3425228,31.5844573 29.244941,31.2185256 L29.244941,31.2185256 L27.2908449,23.8906651 C27.1274187,23.2778171 27.4691378,22.6436219 28.0708534,22.44305 L28.0708534,22.44305 L28.8000011,22.2000006 Z" id="Path-18" fill="#84D600"></path>
                                <path d="M40.7163037,13.2000442 C41.1436838,13.2000505 41.5388041,13.4273708 41.753627,13.7968365 C44.0274002,17.7074099 46.1095251,22.7084648 48.0000019,28.8000011 C49.6512825,34.1207943 50.8968646,39.4374751 51.7367482,44.7500437 C52.0268689,46.5850674 50.8729714,48.3394749 49.0731138,48.7999036 L35.4799106,52.2772346 C34.3472138,52.5669943 33.194085,51.8836587 32.9043253,50.7509618 C32.7019375,49.9598096 32.9726497,49.122795 33.6000013,48.6000019 C37.8978447,45.0184658 39.4154764,39.0850943 37.3651143,33.8798207 L34.230716,25.9224941 C32.0625744,20.4182127 26.7485655,16.8000007 20.8326588,16.8000007 L19.8000008,16.7999254 C19.1372884,16.7999254 18.5998502,16.262713 18.5998502,15.6000006 L18.5998502,14.3996648 C18.5998502,13.7369231 19.1370643,13.1996205 19.799806,13.1996205 L40.7163037,13.2000442 Z" id="Rectangle-2-Copy" fill="#84D600"></path>
                                <rect id="Rectangle" fill="#FFFFFF" x="0" y="0" width="55.2000022" height="12.0000005" rx="2.4000001"></rect>
                            </g>
                        </g>
                        <g id="VP-Icon-/-scan" transform="translate(83.000000, 40.000000)">
                            <g id="VP-Icon-/-.background" fill-rule="nonzero">
                                <path d="M11.9154626,0 L53.6195819,0 C60.2003102,0 65.5350445,5.33473434 65.5350445,11.9154626 L65.5350445,53.6195819 C65.5350445,60.2003102 60.2003102,65.5350445 53.6195819,65.5350445 L11.9154626,65.5350445 C5.33473434,65.5350445 0,60.2003102 0,53.6195819 L0,11.9154626 C0,5.33473434 5.33473434,0 11.9154626,0 Z" id="Path" fill="#ECECEC"></path>
                                <path d="M11.9154626,1.48943283 C6.15732538,1.48943283 1.48943283,6.15732538 1.48943283,11.9154626 L1.48943283,53.6195819 C1.48943283,59.3777192 6.15732538,64.0456117 11.9154626,64.0456117 L53.6195819,64.0456117 C59.3777192,64.0456117 64.0456117,59.3777192 64.0456117,53.6195819 L64.0456117,11.9154626 C64.0456117,6.15732538 59.3777192,1.48943283 53.6195819,1.48943283 L11.9154626,1.48943283 Z" id="Path" fill="#242424"></path>
                            </g>
                            <path d="M38.7648769,26.5615521 L46.7290244,43.7539048 C47.1877348,44.7441262 46.7786907,45.9291131 45.8153991,46.4006471 C45.771567,46.422103 45.7269638,46.4418529 45.6816843,46.4598545 C42.4173185,47.7576628 39.1917673,48.406567 36.0050305,48.406567 C32.7352132,48.406567 29.5039814,47.7614924 26.311335,46.4713433 L26.3113194,46.471384 C25.3183084,46.070108 24.8297656,44.9173107 25.2201286,43.8965391 C25.2365911,43.8534908 25.2545116,43.811047 25.2738574,43.7692851 L33.2451702,26.5615521 L38.7648769,26.5615521 Z" id="Path" fill="#FFFFFF" fill-rule="evenodd"></path>
                            <rect id="Rectangle" fill="#84D600" fill-rule="evenodd" x="18.6179104" y="18.6179104" width="23.1828269" height="3.97182088" rx="1.98591044"></rect>
                        </g>
                        <g id="VP-Icon-/-barcode" transform="translate(0.000000, 214.000000)" fill-rule="nonzero">
                            <g id="VP-Icon-/-.background">
                                <path d="M19.2000008,0 L86.4000034,0 C97.0038711,0 105.600004,8.59613314 105.600004,19.2000008 L105.600004,86.4000034 C105.600004,97.0038711 97.0038711,105.600004 86.4000034,105.600004 L19.2000008,105.600004 C8.59613314,105.600004 0,97.0038711 0,86.4000034 L0,19.2000008 C0,8.59613314 8.59613314,0 19.2000008,0 Z" id="Path" fill="#ECECEC"></path>
                                <path d="M19.2000008,2.4000001 C9.9216166,2.4000001 2.4000001,9.9216166 2.4000001,19.2000008 L2.4000001,86.4000001 C2.4000001,95.6783876 9.9216166,103.200004 19.2000008,103.200004 L86.4000001,103.200004 C95.6783876,103.200004 103.200004,95.6783876 103.200004,86.4000001 L103.200004,19.2000008 C103.200004,9.9216166 95.6783876,2.4000001 86.4000001,2.4000001 L19.2000008,2.4000001 Z" id="Path" fill="#242424"></path>
                            </g>
                            <path d="M82.8000033,57.6000023 L82.8000033,80.4000032 C82.8000033,81.7254866 81.7254866,82.8000033 80.4000032,82.8000033 L57.6000023,82.8000033 C56.9372606,82.8000033 56.4000022,82.262745 56.4000022,81.6000032 L56.4000022,81.6000023 C56.4000022,80.9372606 56.9372606,80.4000022 57.6000023,80.4000022 L79.2000022,80.4000022 C79.8627439,80.4000022 80.4000022,79.8627439 80.4000022,79.2000022 L80.4000022,57.6000023 C80.4000022,56.9372606 80.9372606,56.4000022 81.6000023,56.4000022 L81.6000032,56.4000022 C82.262745,56.4000022 82.8000033,56.9372606 82.8000033,57.6000023 Z" id="Path" fill="#FFFFFF"></path>
                            <path d="M22.8000009,48.0000019 L22.8000009,25.200001 C22.8000009,23.8745175 23.8745175,22.8000009 25.200001,22.8000009 L48.0000019,22.8000009 C48.6627436,22.8000009 49.200002,23.3372592 49.200002,24.000001 C49.200002,24.6627427 48.6627436,25.200001 48.0000019,25.200001 L26.400001,25.200001 C25.7372593,25.200001 25.200001,25.7372593 25.200001,26.400001 L25.200001,48.0000019 C25.200001,48.6627436 24.6627427,49.200002 24.000001,49.200002 C23.3372592,49.200002 22.8000009,48.6627436 22.8000009,48.0000019 Z" id="Path" fill="#FFFFFF"></path>
                            <path d="M44.4000018,60.0000024 L44.4000018,74.400003 L30.0000012,74.400003 L30.0000012,60.0000024 L44.4000018,60.0000024 Z M73.2000029,69.6000028 L73.2000029,74.400003 L70.8000028,74.400003 L70.8000028,72.0000029 L68.4000027,72.0000029 L68.4000027,69.6000028 L73.2000029,69.6000028 Z M54.0000021,40.8000016 L54.0000021,43.2000017 L56.4000022,43.2000017 L56.4000022,48.0000019 L58.8000019,48.0000019 L58.8000019,52.8000016 L56.4000022,52.8000016 L56.4000022,60.0000024 L51.6000021,60.0000024 L51.6000021,64.8000016 L49.200002,64.8000016 L49.200002,69.6000028 L51.6000021,69.6000028 L51.6000021,67.2000027 L56.4000022,67.2000027 L56.4000022,69.6000028 L61.2000024,69.6000028 L61.2000024,72.0000029 L68.4000027,72.0000029 L68.4000027,74.400003 L58.8000019,74.400003 L58.8000019,72.0000029 L56.4000022,72.0000029 L56.4000022,74.400003 L49.200002,74.400003 L49.200002,72.0000029 L46.8000019,72.0000029 L46.8000019,60.0000024 L49.200002,60.0000024 L49.200002,55.2000022 L54.0000021,55.2000022 L54.0000021,48.0000019 L51.6000021,48.0000019 L51.6000021,40.8000016 L54.0000021,40.8000016 Z M42.0000017,62.4000025 L32.4000013,62.4000025 L32.4000013,72.0000029 L42.0000017,72.0000029 L42.0000017,62.4000025 Z M54.0000021,69.6000028 L51.6000021,69.6000028 L51.6000021,72.0000029 L54.0000021,72.0000029 L54.0000021,69.6000028 Z M39.6000016,64.8000026 L39.6000016,69.6000028 L34.8000014,69.6000028 L34.8000014,64.8000026 L39.6000016,64.8000026 Z M61.2000024,60.0000024 L61.2000024,62.4000025 L66.0000026,62.4000025 L66.0000026,67.2000027 L68.4000022,67.2000027 L68.4000022,69.6000028 L63.6000025,69.6000028 L63.6000025,64.8000026 L61.2000024,64.8000026 L61.2000024,67.2000027 L56.4000022,67.2000027 L56.4000022,60.0000024 L61.2000024,60.0000024 Z M73.2000029,64.8000026 L73.2000029,67.2000027 L70.8000028,67.2000027 L70.8000028,64.8000026 L73.2000029,64.8000026 Z M70.8000028,62.4000025 L70.8000028,64.8000026 L68.4000027,64.8000026 L68.4000027,62.4000025 L70.8000028,62.4000025 Z M73.2000029,60.0000024 L73.2000029,62.4000025 L70.8000028,62.4000025 L70.8000028,60.0000024 L73.2000029,60.0000024 Z M70.8000028,48.0000019 L70.8000028,50.400002 L68.4000027,50.400002 L68.4000027,55.2000022 L70.8000028,55.2000022 L70.8000028,60.0000019 L61.2000024,60.0000019 L61.2000024,48.0000019 L70.8000028,48.0000019 Z M37.2000015,48.0000019 L37.2000015,50.400002 L39.6000016,50.400002 L39.6000016,52.8000021 L37.2000015,52.8000021 L37.2000015,55.2000022 L34.8000014,55.2000022 L34.8000014,57.6000023 L30.0000012,57.6000023 L30.0000012,50.400002 L34.8000014,50.400002 L34.8000014,48.0000019 L37.2000015,48.0000019 Z M46.8000019,50.400002 L46.8000019,57.6000023 L39.6000016,57.6000023 L39.6000016,55.2000022 L44.4000018,55.2000022 L44.4000018,50.400002 L46.8000019,50.400002 Z M66.0000026,55.2000022 L63.6000025,55.2000022 L63.6000025,57.6000023 L66.0000026,57.6000023 L66.0000026,55.2000022 Z M73.2000029,50.400002 L73.2000029,55.2000022 L70.8000028,55.2000022 L70.8000028,50.400002 L73.2000029,50.400002 Z M66.0000026,50.400002 L63.6000025,50.400002 L63.6000025,52.8000021 L66.0000026,52.8000021 L66.0000026,50.400002 Z M44.4000018,31.2000012 L44.4000018,45.6000018 L30.0000012,45.6000018 L30.0000012,31.2000012 L44.4000018,31.2000012 Z M73.2000029,31.2000012 L73.2000029,45.6000018 L58.8000023,45.6000018 L58.8000023,31.2000012 L73.2000029,31.2000012 Z M49.200002,33.6000013 L49.200002,36.0000014 L51.6000021,36.0000014 L51.6000021,40.8000016 L49.200002,40.8000016 L49.200002,45.6000013 L46.8000019,45.6000013 L46.8000019,33.6000013 L49.200002,33.6000013 Z M42.0000017,33.6000013 L32.4000013,33.6000013 L32.4000013,43.2000017 L42.0000017,43.2000017 L42.0000017,33.6000013 Z M70.8000028,33.6000013 L61.2000024,33.6000013 L61.2000024,43.2000017 L70.8000028,43.2000017 L70.8000028,33.6000013 Z M39.6000016,36.0000014 L39.6000016,40.8000016 L34.8000014,40.8000016 L34.8000014,36.0000014 L39.6000016,36.0000014 Z M68.4000027,36.0000014 L68.4000027,40.8000016 L63.6000025,40.8000016 L63.6000025,36.0000014 L68.4000027,36.0000014 Z M56.4000022,33.6000013 L56.4000022,40.8000016 L54.0000021,40.8000016 L54.0000021,33.6000013 L56.4000022,33.6000013 Z M54.0000021,31.2000012 L54.0000021,33.6000013 L49.200002,33.6000013 L49.200002,31.2000012 L54.0000021,31.2000012 Z" id="Combined-Shape" fill="#84D600"></path>
                        </g>
                        <g id="VP-Icon-/-sdk" transform="translate(149.000000, 325.000000)">
                            <g id="VP-Icon-/-.background" fill-rule="nonzero">
                                <path d="M14.3999996,0 L64.7999983,0 C72.7528985,0 79.1999979,6.44709943 79.1999979,14.3999996 L79.1999979,64.7999983 C79.1999979,72.7528985 72.7528985,79.1999979 64.7999983,79.1999979 L14.3999996,79.1999979 C6.44709943,79.1999979 0,72.7528985 0,64.7999983 L0,14.3999996 C0,6.44709943 6.44709943,0 14.3999996,0 Z" id="Path" fill="#ECECEC"></path>
                                <path d="M14.3999996,1.79999995 C7.44121196,1.79999995 1.79999995,7.44121196 1.79999995,14.3999996 L1.79999995,64.8 C1.79999995,71.7587859 7.44121196,77.3999979 14.3999996,77.3999979 L64.8,77.3999979 C71.7587859,77.3999979 77.3999979,71.7587859 77.3999979,64.8 L77.3999979,14.3999996 C77.3999979,7.44121196 71.7587859,1.79999995 64.8,1.79999995 L14.3999996,1.79999995 Z" id="Path" fill="#242424"></path>
                            </g>
                            <g id="Group" stroke-width="1" fill-rule="evenodd" transform="translate(14.400000, 35.099999)">
                                <path d="M7.29449467,10.3278203 C7.81694871,10.8476014 7.81694871,11.6873795 7.29449467,12.2071606 C6.76801568,12.730946 5.91135512,12.730946 5.38487613,12.2071606 L0.391840534,7.23966998 C-0.130613511,6.71988888 -0.130613511,5.88011079 0.391840534,5.36032969 L5.38487613,0.392839092 C5.91135512,-0.130946364 6.76801568,-0.130946364 7.29449467,0.392839092 C7.81694871,0.912620196 7.81694871,1.75239828 7.29449467,2.27217939 L3.24596141,6.29999983 L7.29449467,10.3278203 Z" id="Mask" fill="#84D600" fill-rule="nonzero"></path>
                                <path d="M41.6623363,10.3278203 L45.7108696,6.29999983 L41.6623363,2.27217939 C41.1398823,1.75239828 41.1398823,0.912620196 41.6623363,0.392839092 C42.1888153,-0.130946364 43.0454759,-0.130946364 43.5719549,0.392839092 L48.5649905,5.36032969 C49.0874445,5.88011079 49.0874445,6.71988888 48.5649905,7.23966998 L43.5719549,12.2071606 C43.0454759,12.730946 42.1888153,12.730946 41.6623363,12.2071606 C41.1398823,11.6873795 41.1398823,10.8476014 41.6623363,10.3278203 Z" id="Path" fill="#84D600" fill-rule="nonzero"></path>
                                <path d="M18.298602,2.44355994 L16.6844716,3.57755991 C16.2232915,2.86691992 15.6698754,2.51915993 14.5937884,2.51915993 C13.6253102,2.51915993 13.1026394,2.95763992 13.1026394,3.6682799 C13.1026394,4.48475988 13.7790369,4.84763987 15.1933226,5.19539986 C17.4069871,5.73971985 18.4062107,6.55619983 18.4062107,8.40083978 C18.4062107,10.1093997 17.2378877,11.4399597 14.7475151,11.4399597 C12.887422,11.4399597 11.5961177,10.9409997 10.6583848,9.73139974 L12.3032605,8.61251977 C12.8720493,9.30803975 13.5177015,9.65579974 14.6091611,9.65579974 C15.8389747,9.65579974 16.2540368,9.12659976 16.2540368,8.49155978 C16.2540368,7.76579979 15.8082294,7.35755981 14.0864903,6.91907982 C11.9958071,6.37475983 10.9504655,5.39195986 10.9504655,3.6682799 C10.9504655,2.02019995 12.0572978,0.734999981 14.5784158,0.734999981 C16.2694095,0.734999981 17.5453412,1.29443997 18.298602,2.44355994 Z M23.7712727,11.3038797 L20.0049684,11.3038797 L20.0049684,0.871079977 L23.7712727,0.871079977 C26.1694092,0.871079977 27.8450303,2.08067994 27.8450303,5.40707986 L27.8450303,6.76787982 C27.8450303,10.0791597 26.1694092,11.3038797 23.7712727,11.3038797 Z M23.7712727,9.51971975 C25.200931,9.51971975 25.6928565,8.56715977 25.6928565,6.76787982 L25.6928565,5.40707986 C25.6928565,3.6077999 25.200931,2.67035993 23.7712727,2.67035993 L22.1571423,2.67035993 L22.1571423,9.51971975 L23.7712727,9.51971975 Z M38.2984462,11.3038797 L35.7312102,11.3038797 L33.0256202,6.90395982 L31.7650613,8.53691977 L31.7650613,11.3038797 L29.6128874,11.3038797 L29.6128874,0.871079977 L31.7650613,0.871079977 L31.7650613,5.37683986 L35.1163034,0.871079977 L37.6681667,0.871079977 L34.4245332,5.08955987 L38.2984462,11.3038797 Z" id="SDK" fill="#FFFFFF"></path>
                            </g>
                        </g>
                        <g id="VP-Icon-/-folders" transform="translate(321.000000, 286.000000)">
                            <g id="VP-Icon-/-.background" fill-rule="nonzero">
                                <path d="M12.7999992,0 L57.5999966,0 C64.6692409,0 70.3999958,5.73075486 70.3999958,12.7999992 L70.3999958,57.5999966 C70.3999958,64.6692409 64.6692409,70.3999958 57.5999966,70.3999958 L12.7999992,70.3999958 C5.73075486,70.3999958 0,64.6692409 0,57.5999966 L0,12.7999992 C0,5.73075486 5.73075486,0 12.7999992,0 Z" id="Path" fill="#ECECEC"></path>
                                <path d="M12.7999992,1.5999999 C6.61441041,1.5999999 1.5999999,6.61441041 1.5999999,12.7999992 L1.5999999,57.5999999 C1.5999999,63.7855854 6.61441041,68.7999959 12.7999992,68.7999959 L57.5999999,68.7999959 C63.7855854,68.7999959 68.7999959,63.7855854 68.7999959,57.5999999 L68.7999959,12.7999992 C68.7999959,6.61441041 63.7855854,1.5999999 57.5999999,1.5999999 L12.7999992,1.5999999 Z" id="Path" fill="#242424"></path>
                            </g>
                            <path d="M43.9999974,31.9999981 L37.543443,31.9999981 L35.6894244,30.5846591 C34.852781,29.945974 33.8293973,29.5999982 32.7768333,29.5999982 L26.3999989,29.5999982 C23.7490318,29.5999982 21.5999987,31.7490313 21.5999987,34.3999979 L21.5999987,43.9999974 L20.7999988,43.9999974 C19.4745154,43.9999974 18.3999989,42.9254808 18.3999989,41.5999975 L18.3999989,27.1999984 C18.3999989,25.8745151 19.4745154,24.7999985 20.7999988,24.7999985 L27.1768337,24.7999985 C27.7031156,24.7999985 28.2148075,24.9729864 28.6331292,25.2923289 L31.1320744,27.1999984 L41.5999975,27.1999984 C42.9254808,27.1999984 43.9999974,28.2745149 43.9999974,29.5999982 L43.9999974,31.9999981 Z" id="Path" fill="#84D600" fill-rule="evenodd"></path>
                            <path d="M26.3999984,31.9999981 C25.0745151,31.9999981 23.9999986,33.0745146 23.9999986,34.3999979 L23.9999986,48.7999971 C23.9999986,50.1254804 25.0745151,51.1999969 26.3999984,51.1999969 L47.1999972,51.1999969 C48.5254805,51.1999969 49.599997,50.1254804 49.599997,48.7999971 L49.599997,36.7999978 C49.599997,35.4745145 48.5254805,34.3999979 47.1999972,34.3999979 L36.732074,34.3999979 L34.2331289,32.4923285 C33.8148072,32.172986 33.3031153,31.9999981 32.7768333,31.9999981 L26.3999984,31.9999981 Z" id="Path" fill="#FFFFFF" fill-rule="nonzero"></path>
                        </g>
                        <g id="VP-Icon-/-flexcase" transform="translate(370.000000, 135.000000)">
                            <g id="VP-Icon-/-.background" fill-rule="nonzero">
                                <path d="M14.3999996,0 L64.7999983,0 C72.7528985,0 79.1999979,6.44709943 79.1999979,14.3999996 L79.1999979,64.7999983 C79.1999979,72.7528985 72.7528985,79.1999979 64.7999983,79.1999979 L14.3999996,79.1999979 C6.44709943,79.1999979 0,72.7528985 0,64.7999983 L0,14.3999996 C0,6.44709943 6.44709943,0 14.3999996,0 Z" id="Path" fill="#ECECEC"></path>
                                <path d="M14.3999996,1.79999995 C7.44121196,1.79999995 1.79999995,7.44121196 1.79999995,14.3999996 L1.79999995,64.8 C1.79999995,71.7587859 7.44121196,77.3999979 14.3999996,77.3999979 L64.8,77.3999979 C71.7587859,77.3999979 77.3999979,71.7587859 77.3999979,64.8 L77.3999979,14.3999996 C77.3999979,7.44121196 71.7587859,1.79999995 64.8,1.79999995 L14.3999996,1.79999995 Z" id="Path" fill="#242424"></path>
                            </g>
                            <path d="M54.8999985,24.2999994 C55.3970548,24.2999994 55.7999985,24.7029431 55.7999985,25.1999993 L55.7999985,33.2999994 C55.7999985,33.7970554 55.3970548,34.1999991 54.8999985,34.1999991 L54.8999985,24.2999994 Z" id="Rectangle" fill="#84D600" fill-rule="evenodd"></path>
                            <path d="M24.2999994,24.2999994 L24.2999994,34.1999991 C23.8029431,34.1999991 23.3999994,33.7970554 23.3999994,33.2999994 L23.3999994,25.1999993 C23.3999994,24.7029431 23.8029431,24.2999994 24.2999994,24.2999994 Z" id="Rectangle-Copy" fill="#84D600" fill-rule="evenodd"></path>
                            <path d="M29.6999993,16.1999996 L49.4999987,16.1999996 C51.98528,16.1999996 53.9999986,18.2147181 53.9999986,20.6999996 L53.9999986,58.4999985 C53.9999986,60.9852798 51.98528,62.9999983 49.4999987,62.9999983 L29.6999993,62.9999983 C27.2147179,62.9999983 25.1999993,60.9852798 25.1999993,58.4999985 L25.1999993,20.6999996 C25.1999993,18.2147181 27.2147179,16.1999996 29.6999993,16.1999996 Z M49.4999993,57.5999985 C50.9911675,57.5999985 52.1999986,56.3911673 52.1999986,54.8999985 L52.1999986,21.5999994 C52.1999986,19.6117744 50.5882238,17.9999995 48.5999987,17.9999995 L30.5999992,17.9999995 C28.6117741,17.9999995 26.9999993,19.6117744 26.9999993,21.5999994 L26.9999993,54.8999985 C26.9999993,56.3911673 28.2088304,57.5999985 29.6999992,57.5999985 L35.9999993,57.5999985 C36.4970553,57.5999985 36.899999,58.0029422 36.899999,58.4999995 L36.899999,59.3999984 C36.899999,60.3941109 37.7058865,61.1999984 38.699999,61.1999984 L40.4999993,61.1999984 C41.4941115,61.1999984 42.2999989,60.3941109 42.2999989,59.3999984 L42.2999989,58.4999995 C42.2999989,58.0029422 42.7029426,57.5999985 43.1999989,57.5999985 L49.4999993,57.5999985 Z" id="Shape" fill="#FFFFFF" fill-rule="evenodd"></path>
                        </g>
                        <path d="M237.5,146 L237.5,144 L236.5,144 L236.5,146 L237.5,146 Z M237.5,142 L237.5,140 L236.5,140 L236.5,142 L237.5,142 Z M237.5,138 L237.5,136 L236.5,136 L236.5,138 L237.5,138 Z M237.5,134 L237.5,132 L236.5,132 L236.5,134 L237.5,134 Z M237.5,130 L237.5,129.5 L237,130 L238.5,130 L238.5,129 L237,129 L236.5,129 L236.5,129.5 L236.5,130 L237.5,130 Z M240.5,130 L242.5,130 L242.5,129 L240.5,129 L240.5,130 Z M244.5,130 L246.5,130 L246.5,129 L244.5,129 L244.5,130 Z M248.5,130 L250.5,130 L250.5,129 L248.5,129 L248.5,130 Z M252.5,130 L254.5,130 L254.5,129 L252.5,129 L252.5,130 Z M256.5,130 L258.5,130 L258.5,129 L256.5,129 L256.5,130 Z M260.5,130 L262.5,130 L262.5,129 L260.5,129 L260.5,130 Z M264.5,130 L266.5,130 L266.5,129 L264.5,129 L264.5,130 Z M268.5,130 L270.5,130 L270.5,129 L268.5,129 L268.5,130 Z M272.5,130 L274.5,130 L274.5,129 L272.5,129 L272.5,130 Z M276.5,130 L277,130 L277.5,130 L277.5,129.5 L277.5,128 L276.5,128 L276.5,129.5 L277,129 L276.5,129 L276.5,130 Z M277.5,126 L277.5,124 L276.5,124 L276.5,126 L277.5,126 Z M277.5,122 L277.5,120 L276.5,120 L276.5,122 L277.5,122 Z M277.5,118 L277.5,116 L276.5,116 L276.5,118 L277.5,118 Z M277.5,114 L277.5,112 L276.5,112 L276.5,114 L277.5,114 Z" id="Path-4" fill="#B5B5B5" fill-rule="nonzero"></path>
                        <path d="M281,224 L283,224 L283,223 L281,223 L281,224 Z M285,224 L287,224 L287,223 L285,223 L285,224 Z M289,224 L291,224 L291,223 L289,223 L289,224 Z M293,224 L295,224 L295,223 L293,223 L293,224 Z M297,224 L299,224 L299,223 L297,223 L297,224 Z M301,224 L303,224 L303,223 L301,223 L301,224 Z M305,224 L307,224 L307,223 L305,223 L305,224 Z M309,224 L311,224 L311,223 L309,223 L309,224 Z M313,224 L315,224 L315,223 L313,223 L313,224 Z M317,224 L319,224 L319,223 L317,223 L317,224 Z M321.5,223.5 L321.5,221.5 L320.5,221.5 L320.5,223.5 L321.5,223.5 Z M321.5,219.5 L321.5,217.5 L320.5,217.5 L320.5,219.5 L321.5,219.5 Z M321.5,215.5 L321.5,213.5 L320.5,213.5 L320.5,215.5 L321.5,215.5 Z M321.5,211.5 L321.5,209.5 L320.5,209.5 L320.5,211.5 L321.5,211.5 Z M321.5,207.5 L321.5,205.5 L320.5,205.5 L320.5,207.5 L321.5,207.5 Z M321.5,203.5 L321.5,201.5 L320.5,201.5 L320.5,203.5 L321.5,203.5 Z M321.5,199.5 L321.5,197.5 L320.5,197.5 L320.5,199.5 L321.5,199.5 Z M321.5,195.5 L321.5,193.5 L320.5,193.5 L320.5,195.5 L321.5,195.5 Z M321.5,191.5 L321.5,189.5 L320.5,189.5 L320.5,191.5 L321.5,191.5 Z M321.5,187.5 L321.5,185.5 L320.5,185.5 L320.5,187.5 L321.5,187.5 Z M321.5,183.5 L321.5,181.5 L320.5,181.5 L320.5,183.5 L321.5,183.5 Z M321.5,180.5 L323.5,180.5 L323.5,179.5 L321.5,179.5 L321.5,180.5 Z M325.5,180.5 L327.5,180.5 L327.5,179.5 L325.5,179.5 L325.5,180.5 Z M329.5,180.5 L331.5,180.5 L331.5,179.5 L329.5,179.5 L329.5,180.5 Z M333.5,180.5 L335.5,180.5 L335.5,179.5 L333.5,179.5 L333.5,180.5 Z M337.5,180.5 L339.5,180.5 L339.5,179.5 L337.5,179.5 L337.5,180.5 Z M341.5,180.5 L343.5,180.5 L343.5,179.5 L341.5,179.5 L341.5,180.5 Z M345.5,180.5 L347.5,180.5 L347.5,179.5 L345.5,179.5 L345.5,180.5 Z M349.5,180.5 L351.5,180.5 L351.5,179.5 L349.5,179.5 L349.5,180.5 Z M353.5,180.5 L355.5,180.5 L355.5,179.5 L353.5,179.5 L353.5,180.5 Z" id="Path-4-Copy-2" fill="#B5B5B5" fill-rule="nonzero"></path>
                        <path d="M112,268 L114,268 L114,267 L112,267 L112,268 Z M116,268 L118,268 L118,267 L116,267 L116,268 Z M120,268 L122,268 L122,267 L120,267 L120,268 Z M124,268 L126,268 L126,267 L124,267 L124,268 Z M128,268 L130,268 L130,267 L128,267 L128,268 Z M132,268 L134,268 L134,267 L132,267 L132,268 Z M136,268 L138,268 L138,267 L136,267 L136,268 Z M140,268 L142,268 L142,267 L140,267 L140,268 Z M144,268 L146,268 L146,267 L144,267 L144,268 Z M148,268 L150,268 L150,267 L148,267 L148,268 Z M152,268 L154,268 L154,267 L152,267 L152,268 Z M154.633333,265.633333 L154.633333,263.633333 L153.633333,263.633333 L153.633333,265.633333 L154.633333,265.633333 Z M154.633333,261.633333 L154.633333,259.633333 L153.633333,259.633333 L153.633333,261.633333 L154.633333,261.633333 Z M154.633333,257.633333 L154.633333,255.633333 L153.633333,255.633333 L153.633333,257.633333 L154.633333,257.633333 Z M154.633333,253.633333 L154.633333,251.633333 L153.633333,251.633333 L153.633333,253.633333 L154.633333,253.633333 Z M154.633333,249.633333 L154.633333,247.633333 L153.633333,247.633333 L153.633333,249.633333 L154.633333,249.633333 Z M154.633333,245.633333 L154.633333,243.633333 L153.633333,243.633333 L153.633333,245.633333 L154.633333,245.633333 Z M154.633333,241.633333 L154.633333,239.633333 L153.633333,239.633333 L153.633333,241.633333 L154.633333,241.633333 Z M154.633333,237.633333 L154.633333,235.633333 L153.633333,235.633333 L153.633333,237.633333 L154.633333,237.633333 Z M154.633333,233.633333 L154.633333,231.633333 L153.633333,231.633333 L153.633333,233.633333 L154.633333,233.633333 Z M154.633333,229.633333 L154.633333,227.633333 L153.633333,227.633333 L153.633333,229.633333 L154.633333,229.633333 Z M154.633333,225.633333 L154.633333,224 L154.133333,224 L154.133333,224.5 L154.5,224.5 L154.5,223.5 L154.133333,223.5 L153.633333,223.5 L153.633333,224 L153.633333,225.633333 L154.633333,225.633333 Z M156.5,224.5 L158.5,224.5 L158.5,223.5 L156.5,223.5 L156.5,224.5 Z M160.5,224.5 L162.5,224.5 L162.5,223.5 L160.5,223.5 L160.5,224.5 Z M164.5,224.5 L166.5,224.5 L166.5,223.5 L164.5,223.5 L164.5,224.5 Z M168.5,224.5 L170.5,224.5 L170.5,223.5 L168.5,223.5 L168.5,224.5 Z M172.5,224.5 L174.5,224.5 L174.5,223.5 L172.5,223.5 L172.5,224.5 Z M176.5,224.5 L178.5,224.5 L178.5,223.5 L176.5,223.5 L176.5,224.5 Z M180.5,224.5 L182.5,224.5 L182.5,223.5 L180.5,223.5 L180.5,224.5 Z M184.5,224.5 L186.5,224.5 L186.5,223.5 L184.5,223.5 L184.5,224.5 Z M188.5,224.5 L190.5,224.5 L190.5,223.5 L188.5,223.5 L188.5,224.5 Z" id="Path-4-Copy-4" fill="#B5B5B5" fill-rule="nonzero"></path>
                        <path d="M188.999976,319.995062 L188.980223,317.99516 L187.980272,318.005036 L188.000024,320.004938 L188.999976,319.995062 Z M188.960471,315.995257 L188.940719,313.995355 L187.940768,314.005231 L187.96052,316.005133 L188.960471,315.995257 Z M188.920967,311.995452 L188.901215,309.99555 L187.901264,310.005426 L187.921016,312.005328 L188.920967,311.995452 Z M188.881463,307.995647 L188.866642,306.495062 L188.366667,306.5 L188.366667,307 L188.866008,307 L188.866008,306 L188.366667,306 L187.861704,306 L187.866691,306.504938 L187.881512,308.005523 L188.881463,307.995647 Z M190.866008,307 L192.866008,307 L192.866008,306 L190.866008,306 L190.866008,307 Z M194.866008,307 L196.866008,307 L196.866008,306 L194.866008,306 L194.866008,307 Z M198.866008,307 L200.866008,307 L200.866008,306 L198.866008,306 L198.866008,307 Z M202.866008,307 L204.866008,307 L204.866008,306 L202.866008,306 L202.866008,307 Z M206.866008,307 L208.866008,307 L208.866008,306 L206.866008,306 L206.866008,307 Z M210.866008,307 L212.866008,307 L212.866008,306 L210.866008,306 L210.866008,307 Z M214.866008,307 L216.866008,307 L216.866008,306 L214.866008,306 L214.866008,307 Z M218.866008,307 L220.866008,307 L220.866008,306 L218.866008,306 L218.866008,307 Z M222.866008,307 L224.866008,307 L224.866008,306 L222.866008,306 L222.866008,307 Z M226.866008,307 L228.866008,307 L228.866008,306 L226.866008,306 L226.866008,307 Z M230.866008,307 L232.866008,307 L232.866008,306 L230.866008,306 L230.866008,307 Z M234.866008,307 L236.866008,307 L236.866008,306 L234.866008,306 L234.866008,307 Z M237.5,304.633992 L237.5,302.633992 L236.5,302.633992 L236.5,304.633992 L237.5,304.633992 Z M237.5,300.633992 L237.5,298.633992 L236.5,298.633992 L236.5,300.633992 L237.5,300.633992 Z M237.5,296.633992 L237.5,294.633992 L236.5,294.633992 L236.5,296.633992 L237.5,296.633992 Z M237.5,292.633992 L237.5,292.5 L236.5,292.5 L236.5,292.633992 L237.5,292.633992 Z" id="Path-4-Copy-5" fill="#B5B5B5" fill-rule="nonzero"></path>
                        <path d="M281,224 L283,224 L283,223 L281,223 L281,224 Z M285,224 L287,224 L287,223 L285,223 L285,224 Z M289,224 L291,224 L291,223 L289,223 L289,224 Z M293,224 L295,224 L295,223 L293,223 L293,224 Z M297,224 L299,224 L299,223 L297,223 L297,224 Z M301,224 L303,224 L303,223 L301,223 L301,224 Z M305,224 L307,224 L307,223 L305,223 L305,224 Z M307.5,224.5 L307.5,226.5 L308.5,226.5 L308.5,224.5 L307.5,224.5 Z M307.5,228.5 L307.5,230.5 L308.5,230.5 L308.5,228.5 L307.5,228.5 Z M307.5,232.5 L307.5,234.5 L307.5,235 L308,235 L309,235 L309,234 L308,234 L308.5,234.5 L308.5,232.5 L307.5,232.5 Z M310,235 L312,235 L312,234 L310,234 L310,235 Z M314,235 L316,235 L316,234 L314,234 L314,235 Z M318,235 L320,235 L320,234 L318,234 L318,235 Z M322,235 L324,235 L324,234 L322,234 L322,235 Z M326,235 L328,235 L328,234 L326,234 L326,235 Z M330,235 L332,235 L332,234 L330,234 L330,235 Z M334,235 L336,235 L336,234 L334,234 L334,235 Z M338,235 L340,235 L340,234 L338,234 L338,235 Z M342,235 L344,235 L344,234 L342,234 L342,235 Z M346,235 L348,235 L348,234 L346,234 L346,235 Z M350,235 L352,235 L352,234 L350,234 L350,235 Z M354,235 L356,235 L355.5,234.5 L355.5,235.5 L356.5,235.5 L356.5,234.5 L356.5,234 L356,234 L354,234 L354,235 Z M355.5,236.5 L355.5,238.5 L356.5,238.5 L356.5,236.5 L355.5,236.5 Z M355.5,240.5 L355.5,242.5 L356.5,242.5 L356.5,240.5 L355.5,240.5 Z M355.5,244.5 L355.5,246.5 L356.5,246.5 L356.5,244.5 L355.5,244.5 Z M355.5,248.5 L355.5,250.5 L356.5,250.5 L356.5,248.5 L355.5,248.5 Z M355.5,252.5 L355.5,254.5 L356.5,254.5 L356.5,252.5 L355.5,252.5 Z M355.5,256.5 L355.5,258.5 L356.5,258.5 L356.5,256.5 L355.5,256.5 Z M355.5,260.5 L355.5,262.5 L356.5,262.5 L356.5,260.5 L355.5,260.5 Z M355.5,264.5 L355.5,266.5 L356.5,266.5 L356.5,264.5 L355.5,264.5 Z M355.5,268.5 L355.5,270.5 L356.5,270.5 L356.5,268.5 L355.5,268.5 Z" id="Path-4-Copy-3" fill="#B5B5B5" fill-rule="nonzero"></path>
                        <path d="M237.5,146 L237.5,144 L236.5,144 L236.5,146 L237.5,146 Z M237.5,142 L237.5,140 L236.5,140 L236.5,142 L237.5,142 Z M237.5,138 L237.5,136 L236.5,136 L236.5,138 L237.5,138 Z M236,134.5 L234,134.5 L234,135.5 L236,135.5 L236,134.5 Z M232,134.5 L230,134.5 L230,135.5 L232,135.5 L232,134.5 Z M228,134.5 L226,134.5 L226,135.5 L228,135.5 L228,134.5 Z M224,134.5 L222,134.5 L222,135.5 L224,135.5 L224,134.5 Z M220,134.5 L218,134.5 L218,135.5 L220,135.5 L220,134.5 Z M216,134.5 L214,134.5 L214,135.5 L216,135.5 L216,134.5 Z M212,134.5 L210,134.5 L210,135.5 L212,135.5 L212,134.5 Z M208,134.5 L206,134.5 L206,135.5 L208,135.5 L208,134.5 Z M204,134.5 L202,134.5 L202,135.5 L204,135.5 L204,134.5 Z M200,134.5 L198,134.5 L198,135.5 L200,135.5 L200,134.5 Z M196,134.5 L194,134.5 L194,135.5 L196,135.5 L196,134.5 Z M192,134.5 L190,134.5 L190,135.5 L192,135.5 L192,134.5 Z M188,134.5 L186,134.5 L186,135.5 L188,135.5 L188,134.5 Z M184,134.5 L182,134.5 L182,135.5 L184,135.5 L184,134.5 Z M180,134.5 L178,134.5 L178,135.5 L180,135.5 L180,134.5 Z M176,134.5 L174,134.5 L174,135.5 L176,135.5 L176,134.5 Z M172,134.5 L170,134.5 L170,135.5 L172,135.5 L172,134.5 Z M168,134.5 L166,134.5 L166,135.5 L168,135.5 L168,134.5 Z M164,134.5 L162,134.5 L162,135.5 L164,135.5 L164,134.5 Z M160,134.5 L158,134.5 L158,135.5 L160,135.5 L160,134.5 Z M156,134.5 L154,134.5 L154,135.5 L156,135.5 L156,134.5 Z M152,134.5 L150,134.5 L150,135.5 L152,135.5 L152,134.5 Z M148,134.5 L146,134.5 L146,135.5 L148,135.5 L148,134.5 Z M144,134.5 L142,134.5 L142,135.5 L144,135.5 L144,134.5 Z M140,134.5 L138,134.5 L138,135.5 L140,135.5 L140,134.5 Z M136,134.5 L134,134.5 L134,135.5 L136,135.5 L136,134.5 Z M132,134.5 L130,134.5 L130,135.5 L132,135.5 L132,134.5 Z M128,134.5 L126,134.5 L126,135.5 L128,135.5 L128,134.5 Z M124,134.5 L122,134.5 L122,135.5 L124,135.5 L124,134.5 Z M120,134.5 L118,134.5 L118,135.5 L120,135.5 L120,134.5 Z M116.5,135 L116.5,133 L115.5,133 L115.5,135 L116.5,135 Z M116.5,131 L116.5,129 L115.5,129 L115.5,131 L116.5,131 Z M116.5,127 L116.5,125 L115.5,125 L115.5,127 L116.5,127 Z M116.5,123 L116.5,121 L115.5,121 L115.5,123 L116.5,123 Z M116.5,119 L116.5,117 L115.5,117 L115.5,119 L116.5,119 Z M116.5,115 L116.5,113 L115.5,113 L115.5,115 L116.5,115 Z" id="Path-4-Copy" fill="#B5B5B5" fill-rule="nonzero"></path>
                    </g>
                </g>
            </g>
        </g>
    </g>
</svg>