<?xml version="1.0" encoding="utf-8"?>
<!-- Generator: Adobe Illustrator 23.0.0, SVG Export Plug-In . SVG Version: 6.00 Build 0)  -->
<svg version="1.1" id="Layer_1" xmlns="http://www.w3.org/2000/svg" xmlns:xlink="http://www.w3.org/1999/xlink" x="0px" y="0px"
	 viewBox="0 0 337 52" style="enable-background:new 0 0 337 52;" xml:space="preserve">
<style type="text/css">
	.st0{fill-rule:evenodd;clip-rule:evenodd;fill:#84D600;}
</style>
<path id="Shape" d="M62,13.7v23.5h5.5V13.7H62z M85.9,24.1c-0.2-0.7-0.6-1.4-1.1-2c-0.5-0.6-1.1-1-1.8-1.3c-0.8-0.3-1.6-0.5-2.4-0.5
	c-0.5,0-1,0-1.5,0.2c-0.4,0.1-0.9,0.2-1.3,0.4c-0.4,0.2-0.8,0.4-1.1,0.6c-0.4,0.3-0.7,0.5-1,0.8l-0.3-1c-0.1-0.3-0.2-0.5-0.4-0.6
	c-0.2-0.1-0.5-0.2-0.8-0.2h-3.1v16.7h5V25.3c0.4-0.4,0.9-0.7,1.4-1c0.5-0.2,1-0.4,1.6-0.3c0.6,0,1.2,0.2,1.7,0.7
	c0.4,0.6,0.6,1.2,0.5,1.9v10.6h5V26.6C86.3,25.8,86.1,24.9,85.9,24.1z M94.8,18.4c0.1-0.3,0.3-0.6,0.5-0.9c0.2-0.2,0.5-0.4,0.9-0.5
	c0.4-0.1,0.8-0.1,1.2-0.1c0.1,0,0.3,0,0.4,0c0.1,0,0.3-0.1,0.4-0.2c0.1-0.1,0.2-0.2,0.3-0.3c0.1-0.1,0.1-0.3,0.1-0.4l0.1-2.4
	c-0.4-0.1-0.7-0.2-1.1-0.2c-1.3-0.2-2.7,0-4,0.4c-0.8,0.3-1.5,0.7-2.1,1.3c-0.6,0.6-1,1.3-1.3,2c-0.3,0.8-0.5,1.7-0.5,2.6v1h-2.4v2
	c0,0.3,0.1,0.6,0.3,0.8c0.3,0.2,0.6,0.3,0.9,0.4l1.1,0.2v13.3h5V24h3.8v-3.4h-3.9v-0.8C94.7,19.3,94.7,18.8,94.8,18.4z M106.1,14.8
	c-0.2-0.4-0.4-0.7-0.7-0.9c-0.3-0.3-0.6-0.5-1-0.6c-0.4-0.1-0.8-0.2-1.2-0.2c-0.8,0-1.5,0.3-2.1,0.9c-0.3,0.3-0.5,0.6-0.6,0.9
	c-0.2,0.4-0.2,0.7-0.2,1.1c0,0.4,0.1,0.8,0.2,1.1c0.1,0.3,0.4,0.7,0.6,0.9c0.3,0.3,0.6,0.5,0.9,0.6c0.4,0.2,0.8,0.2,1.1,0.2
	c0.4,0,0.8-0.1,1.2-0.2c0.4-0.2,0.7-0.4,1-0.6c0.3-0.3,0.5-0.6,0.7-0.9c0.2-0.4,0.2-0.7,0.2-1.1C106.4,15.5,106.3,15.2,106.1,14.8z
	 M100.8,20.5v16.7h5V20.5H100.8z M123.8,24.1c-0.2-0.7-0.6-1.4-1.1-2c-0.5-0.6-1.1-1-1.8-1.3c-0.8-0.3-1.6-0.5-2.4-0.5
	c-0.5,0-1,0-1.5,0.1c-0.4,0.1-0.9,0.2-1.3,0.4c-0.4,0.2-0.8,0.4-1.1,0.7c-0.4,0.3-0.7,0.5-1,0.8l-0.3-1c-0.1-0.3-0.2-0.5-0.4-0.6
	c-0.2-0.1-0.5-0.2-0.8-0.2H109v16.8h5V25.3c0.4-0.4,0.9-0.7,1.4-1c0.5-0.2,1-0.4,1.5-0.3c0.6,0,1.2,0.2,1.7,0.7
	c0.4,0.6,0.6,1.2,0.5,1.9v10.6h5l0-10.6C124.2,25.8,124.1,24.9,123.8,24.1L123.8,24.1z M132.6,14.8c-0.2-0.4-0.4-0.7-0.7-0.9
	c-0.6-0.6-1.4-0.9-2.2-0.8c-0.8,0-1.5,0.3-2.1,0.9c-0.3,0.3-0.5,0.6-0.7,0.9c-0.2,0.4-0.2,0.7-0.2,1.1c0,0.4,0.1,0.8,0.2,1.1
	c0.2,0.3,0.4,0.7,0.7,0.9c0.3,0.3,0.6,0.5,0.9,0.6c0.4,0.2,0.7,0.2,1.1,0.2c0.4,0,0.8-0.1,1.2-0.2c0.4-0.2,0.7-0.4,1-0.6
	c0.3-0.3,0.5-0.6,0.7-0.9c0.2-0.4,0.2-0.7,0.2-1.1C132.8,15.5,132.7,15.2,132.6,14.8L132.6,14.8z M127.3,20.5v16.8h5V20.5
	L127.3,20.5z M144.4,33.7c-0.1-0.1-0.2-0.2-0.3-0.3c-0.1-0.1-0.2-0.1-0.4-0.1c-0.1,0-0.2,0-0.3,0.1l-0.3,0.1
	c-0.1,0.1-0.2,0.1-0.3,0.1c-0.2,0-0.3,0.1-0.5,0.1c-0.3,0-0.6-0.1-0.8-0.4c-0.2-0.3-0.3-0.6-0.3-1V24h4.1v-3.4h-4.1v-4.9h-2.6
	c-0.5-0.1-1,0.3-1.1,0.8l-1,4.1L134,21v2c0,0.3,0.1,0.5,0.2,0.7s0.4,0.3,0.7,0.3h1.4v8.6c0,0.7,0.1,1.4,0.3,2
	c0.4,1.2,1.3,2.1,2.5,2.5c0.7,0.2,1.4,0.4,2.1,0.3c0.8,0,1.7-0.1,2.5-0.4c0.8-0.2,1.5-0.6,2.2-1.1L144.4,33.7z M161.4,29.7
	c0.1-0.1,0.3-0.2,0.3-0.3c0.1-0.2,0.2-0.4,0.2-0.5c0-0.3,0.1-0.6,0-0.9c0-1.1-0.2-2.2-0.5-3.2c-0.3-0.9-0.9-1.7-1.5-2.4
	c-0.7-0.7-1.5-1.2-2.4-1.5c-2.1-0.7-4.4-0.7-6.5,0.1c-2,0.8-3.5,2.4-4.2,4.4c-0.4,1-0.6,2.1-0.6,3.2c0,1.3,0.2,2.7,0.7,3.9
	c0.4,1.1,1,2,1.8,2.9c0.8,0.7,1.7,1.3,2.7,1.7c1.1,0.4,2.2,0.6,3.3,0.5c0.6,0,1.2,0,1.8-0.1c0.6-0.1,1.3-0.2,1.9-0.4
	c0.6-0.2,1.3-0.5,1.8-0.9c0.6-0.4,1.2-0.9,1.7-1.4l-1.4-1.8c-0.2-0.3-0.5-0.4-0.9-0.4c-0.3,0-0.6,0.1-0.9,0.2l-0.9,0.5
	c-0.4,0.2-0.7,0.3-1.1,0.5c-0.5,0.1-1,0.2-1.5,0.2c-1,0-1.9-0.3-2.7-0.9c-0.8-0.8-1.2-1.9-1.3-3h9.6C161,29.8,161.2,29.8,161.4,29.7
	L161.4,29.7z M151.3,26.8c0.1-0.9,0.5-1.7,1.1-2.4c0.6-0.6,1.4-0.9,2.2-0.8c0.5,0,0.9,0.1,1.4,0.3c0.3,0.2,0.6,0.4,0.9,0.7
	c0.2,0.3,0.4,0.6,0.5,1c0.1,0.4,0.2,0.8,0.2,1.2L151.3,26.8z M188.2,18.4c-0.4-0.9-1-1.8-1.7-2.4c-0.9-0.7-1.9-1.3-3-1.6
	c-1.4-0.4-2.8-0.6-4.3-0.6H171v23.5h5.4v-7.8h2.8c1.4,0,2.9-0.2,4.2-0.6c1.1-0.3,2.1-0.9,3-1.6c0.8-0.7,1.4-1.5,1.7-2.5
	c0.4-1,0.6-2.1,0.5-3.2C188.8,20.4,188.6,19.4,188.2,18.4z M182.3,24.3c-0.6,0.7-1.6,1-3.1,1h-2.8v-7.5h2.8c0.6,0,1.2,0.1,1.8,0.3
	c0.5,0.1,0.9,0.4,1.3,0.7c0.3,0.3,0.6,0.7,0.7,1.1c0.2,0.5,0.2,1,0.2,1.5C183.3,22.5,183,23.5,182.3,24.3z M203.8,29.7
	c0.1-0.1,0.3-0.2,0.3-0.3c0.1-0.2,0.2-0.4,0.2-0.5c0-0.3,0.1-0.6,0.1-0.9c0-1.1-0.2-2.2-0.5-3.2c-0.3-0.9-0.9-1.7-1.5-2.4
	c-0.7-0.7-1.5-1.2-2.4-1.5c-2.1-0.7-4.4-0.7-6.5,0.1c-2,0.8-3.5,2.4-4.3,4.4c-0.4,1-0.6,2.1-0.5,3.2c0,1.3,0.2,2.7,0.7,3.9
	c0.4,1.1,1,2,1.9,2.8c0.8,0.7,1.7,1.3,2.7,1.7c1.1,0.4,2.2,0.6,3.3,0.5c0.6,0,1.2,0,1.8-0.1c0.6-0.1,1.3-0.2,1.9-0.4
	c0.6-0.2,1.3-0.5,1.8-0.9c0.6-0.4,1.2-0.9,1.7-1.4l-1.5-1.8c-0.2-0.3-0.6-0.4-0.9-0.4c-0.3,0-0.6,0.1-0.9,0.2l-0.9,0.5
	c-0.4,0.2-0.7,0.3-1.1,0.5c-0.5,0.1-1,0.2-1.5,0.2c-1,0-1.9-0.3-2.7-0.9c-0.8-0.8-1.2-1.9-1.3-3h9.6
	C203.4,29.8,203.6,29.8,203.8,29.7L203.8,29.7z M193.6,26.9c0.1-0.9,0.5-1.7,1.1-2.4c0.6-0.6,1.4-0.9,2.2-0.8c0.5,0,0.9,0.1,1.4,0.3
	c0.3,0.2,0.6,0.4,0.9,0.7c0.2,0.3,0.4,0.6,0.5,1c0.1,0.4,0.2,0.8,0.2,1.2L193.6,26.9z M216,20.2c-0.9,0-1.8,0.3-2.5,0.8
	c-0.8,0.6-1.5,1.4-2.1,2.2l-0.3-1.6c0-0.2-0.1-0.4-0.1-0.5c-0.1-0.1-0.1-0.3-0.3-0.4c-0.1-0.1-0.3-0.2-0.4-0.2
	c-0.2,0-0.4-0.1-0.6-0.1h-3v16.7h5V27c0.7-1.4,1.8-2.1,3.1-2.1c0.3,0,0.6,0,0.9,0.1c0.2,0,0.4,0.1,0.6,0.1c0.2,0,0.4,0,0.5-0.1
	c0.1-0.1,0.2-0.3,0.3-0.5l0.6-3.7C217.3,20.4,216.7,20.2,216,20.2z M225.3,14.8c-0.2-0.4-0.4-0.7-0.7-0.9c-0.6-0.6-1.4-0.9-2.2-0.9
	c-0.8,0-1.5,0.3-2.1,0.9c-0.3,0.3-0.5,0.6-0.6,0.9c-0.2,0.4-0.2,0.7-0.2,1.1c0,0.4,0.1,0.8,0.2,1.1c0.2,0.3,0.4,0.7,0.6,0.9
	c0.3,0.3,0.6,0.5,0.9,0.6c0.4,0.2,0.7,0.2,1.1,0.2c0.4,0,0.8-0.1,1.2-0.2c0.4-0.2,0.7-0.4,1-0.6c0.3-0.3,0.5-0.6,0.7-0.9
	c0.2-0.4,0.2-0.7,0.2-1.1C225.5,15.5,225.4,15.2,225.3,14.8L225.3,14.8z M220,20.5v16.7h5V20.5H220z M244,25.1
	c-0.3-1-0.7-1.9-1.3-2.7c-0.5-0.7-1.2-1.3-1.9-1.7c-0.7-0.4-1.6-0.6-2.4-0.6c-0.5,0-1.1,0.1-1.6,0.2c-0.5,0.1-0.9,0.3-1.4,0.5
	c-0.4,0.2-0.8,0.5-1.2,0.8c-0.4,0.3-0.7,0.6-1,1l-0.4-1.2c-0.1-0.3-0.2-0.5-0.4-0.6c-0.2-0.1-0.5-0.2-0.8-0.2h-3.1v22h5v-6.4
	c0.5,0.4,1,0.8,1.6,1c0.7,0.3,1.4,0.4,2.2,0.4c1,0,2-0.2,2.9-0.7c0.9-0.4,1.6-1.1,2.3-1.8c0.7-0.8,1.1-1.8,1.5-2.8
	c0.4-1.1,0.6-2.3,0.5-3.5C244.5,27.5,244.3,26.3,244,25.1L244,25.1z M239,31.1c-0.1,0.6-0.4,1.1-0.7,1.6c-0.3,0.4-0.6,0.7-1,0.9
	c-0.4,0.2-0.8,0.3-1.3,0.3c-0.5,0-0.9-0.1-1.4-0.2c-0.5-0.2-0.9-0.5-1.2-0.9v-7.1c0.2-0.2,0.4-0.5,0.6-0.7c0.2-0.2,0.4-0.4,0.7-0.5
	c0.3-0.1,0.5-0.2,0.8-0.3c0.3-0.1,0.7-0.1,1-0.1c0.4,0,0.7,0.1,1.1,0.2c0.3,0.2,0.6,0.5,0.8,0.8c0.3,0.5,0.4,0.9,0.5,1.5
	c0.1,0.7,0.2,1.5,0.2,2.2C239.3,29.5,239.2,30.3,239,31.1z M261.3,24.1c-0.2-0.7-0.6-1.4-1.1-2c-0.5-0.6-1.1-1-1.8-1.3
	c-0.8-0.3-1.6-0.5-2.4-0.5c-0.9,0-1.7,0.1-2.5,0.5c-0.7,0.3-1.4,0.7-2,1.2v-8.9h-5v24.1h5V25.3c0.4-0.4,0.9-0.7,1.4-1
	c0.5-0.2,1-0.4,1.6-0.3c0.6,0,1.2,0.2,1.7,0.7c0.4,0.6,0.6,1.2,0.5,1.9v10.6h5V26.6C261.7,25.8,261.5,24.9,261.3,24.1L261.3,24.1z
	 M278.8,29.7c0.1-0.1,0.3-0.2,0.3-0.3c0.1-0.2,0.2-0.4,0.2-0.5c0-0.3,0.1-0.6,0-0.9c0-1.1-0.2-2.2-0.5-3.2c-0.3-0.9-0.9-1.7-1.6-2.4
	c-0.7-0.7-1.5-1.2-2.4-1.5c-2.1-0.7-4.4-0.7-6.5,0.1c-2,0.8-3.5,2.4-4.2,4.4c-0.4,1-0.6,2.1-0.5,3.2c0,1.3,0.2,2.7,0.7,3.9
	c0.4,1.1,1,2,1.8,2.8c0.8,0.8,1.7,1.3,2.7,1.7c1,0.4,2.2,0.6,3.3,0.5c0.6,0,1.2,0,1.8-0.1c0.6-0.1,1.3-0.2,1.9-0.4
	c0.6-0.2,1.3-0.5,1.8-0.9c0.6-0.4,1.2-0.9,1.7-1.4l-1.5-1.8c-0.2-0.3-0.5-0.5-0.9-0.4c-0.3,0-0.6,0.1-0.9,0.2l-0.9,0.5
	c-0.4,0.2-0.7,0.3-1.1,0.5c-0.5,0.2-1,0.2-1.5,0.2c-1,0-1.9-0.3-2.7-0.9c-0.8-0.8-1.2-1.9-1.3-3h9.6
	C278.5,29.8,278.7,29.8,278.8,29.7L278.8,29.7z M268.7,26.9c0.1-0.9,0.5-1.7,1.1-2.4c0.6-0.6,1.4-0.9,2.2-0.8c0.5,0,0.9,0.1,1.4,0.3
	c0.4,0.2,0.7,0.4,0.9,0.7c0.2,0.3,0.4,0.6,0.5,1c0.1,0.4,0.2,0.8,0.2,1.2L268.7,26.9z M291,20.2c-0.9,0-1.8,0.3-2.5,0.8
	c-0.8,0.6-1.5,1.4-2.1,2.2l-0.3-1.6c0-0.2-0.1-0.4-0.2-0.5c-0.1-0.1-0.1-0.3-0.3-0.4c-0.1-0.1-0.3-0.2-0.4-0.2
	c-0.2,0-0.4-0.1-0.6-0.1h-3v16.7h5V27c0.8-1.4,1.8-2.1,3.1-2.1c0.3,0,0.6,0,0.9,0.1c0.2,0,0.4,0.1,0.6,0.1c0.2,0,0.4,0,0.5-0.1
	c0.1-0.1,0.2-0.3,0.3-0.5l0.6-3.7C292.3,20.3,291.7,20.2,291,20.2L291,20.2z M307.6,24.1c-0.3-0.8-0.7-1.5-1.3-2.1
	c-0.6-0.6-1.3-1.1-2.1-1.4c-0.9-0.3-1.8-0.5-2.7-0.5c-1.3,0-2.7,0.2-4,0.6c-1.2,0.4-2.4,1.1-3.4,2l0.9,1.6c0.1,0.2,0.3,0.4,0.5,0.6
	c0.3,0.2,0.6,0.3,0.9,0.2c0.3,0,0.7-0.1,1-0.2c0.3-0.1,0.5-0.3,0.9-0.4c0.3-0.2,0.7-0.3,1-0.4c0.5-0.1,1-0.2,1.4-0.2
	c0.6,0,1.3,0.2,1.7,0.7c0.5,0.6,0.7,1.4,0.6,2.1v0.7c-1.6,0-3.2,0.2-4.8,0.5c-1.1,0.3-2.1,0.7-3,1.3c-0.7,0.4-1.2,1-1.6,1.7
	c-0.3,0.6-0.5,1.2-0.5,1.8c0,0.7,0.1,1.4,0.4,2c0.2,0.6,0.6,1,1,1.4c0.5,0.4,1,0.7,1.6,0.9c0.7,0.2,1.4,0.3,2.1,0.3
	c0.5,0,1,0,1.6-0.1c0.5-0.1,0.9-0.2,1.3-0.4c0.4-0.2,0.8-0.4,1.2-0.7c0.4-0.3,0.8-0.6,1.2-0.9l0.4,0.9c0.1,0.3,0.3,0.6,0.6,0.8
	c0.3,0.1,0.7,0.2,1.1,0.2h2.3V26.8C308,25.9,307.9,25,307.6,24.1z M303.2,32.8c-0.4,0.5-0.9,0.8-1.5,1.1c-0.5,0.2-1.1,0.3-1.7,0.3
	c-0.5,0-1-0.1-1.4-0.3c-0.3-0.3-0.5-0.8-0.5-1.2c0-0.3,0.1-0.6,0.2-0.8c0.2-0.3,0.5-0.5,0.8-0.7c0.5-0.2,1-0.4,1.5-0.5
	c0.8-0.1,1.6-0.2,2.5-0.2V32.8z M311,13.1v24.1h5V13.1H311z M330.5,30.1c-0.2-0.5-0.5-0.9-0.9-1.2c-0.4-0.3-0.8-0.6-1.2-0.9
	c-0.5-0.2-0.9-0.4-1.4-0.6c-0.5-0.2-1-0.3-1.4-0.5s-0.9-0.3-1.2-0.4c-0.3-0.1-0.6-0.3-0.9-0.5c-0.2-0.2-0.3-0.5-0.3-0.8
	c0-0.4,0.2-0.8,0.5-1c0.4-0.3,0.9-0.4,1.5-0.4c0.4,0,0.8,0,1.2,0.2c0.3,0.1,0.6,0.2,0.9,0.3l0.8,0.3c0.2,0.1,0.5,0.2,0.7,0.2
	c0.2,0,0.4,0,0.5-0.1c0.2-0.1,0.3-0.3,0.4-0.4l1.1-1.8c-0.3-0.3-0.7-0.6-1.1-0.9c-0.4-0.3-0.9-0.5-1.4-0.7c-0.5-0.2-1-0.4-1.6-0.4
	c-1.6-0.3-3.1-0.2-4.7,0.3c-0.8,0.3-1.5,0.7-2.1,1.2c-0.5,0.5-1,1-1.2,1.7c-0.5,1.3-0.6,2.7-0.1,4c0.2,0.5,0.5,1,0.9,1.4
	c0.4,0.4,0.8,0.7,1.3,0.9c0.5,0.2,0.9,0.4,1.4,0.6c0.5,0.2,1,0.3,1.4,0.5c0.4,0.1,0.8,0.3,1.2,0.4c0.3,0.1,0.6,0.3,0.9,0.5
	c0.2,0.2,0.3,0.5,0.3,0.8c0,0.2,0,0.4-0.1,0.5c-0.1,0.2-0.2,0.3-0.4,0.5c-0.2,0.2-0.4,0.3-0.6,0.3c-0.3,0.1-0.6,0.1-1,0.1
	c-0.5,0-0.9,0-1.4-0.2c-0.3-0.1-0.6-0.3-0.9-0.4l-0.8-0.4c-0.2-0.1-0.5-0.2-0.8-0.2c-0.3,0-0.5,0.1-0.8,0.2
	c-0.2,0.1-0.4,0.3-0.5,0.5l-1.2,1.8c0.4,0.3,0.8,0.6,1.2,0.8c0.5,0.3,1,0.5,1.5,0.6c0.5,0.2,1.1,0.3,1.6,0.4
	c0.6,0.1,1.1,0.2,1.7,0.2c1,0,2-0.1,3-0.4c0.8-0.2,1.6-0.6,2.2-1.2c0.6-0.5,1-1.1,1.3-1.8c0.3-0.7,0.5-1.5,0.5-2.3
	C330.9,31.2,330.8,30.6,330.5,30.1L330.5,30.1z M335.1,18.9c0-0.1,0-0.1,0-0.2v-0.3c0-0.3-0.1-0.5-0.3-0.7c-0.1-0.1-0.3-0.1-0.4-0.2
	c0.2,0,0.4-0.1,0.5-0.2c0.2-0.1,0.2-0.3,0.2-0.5c0-0.2,0-0.4-0.2-0.5c0-0.1-0.1-0.1-0.1-0.1l-0.1-0.1c-0.2-0.1-0.4-0.1-0.6-0.2h-1.5
	v3h0.8v-1.1h0.3c0.1,0,0.2,0,0.3,0.1c0.1,0,0.2,0.1,0.2,0.2c0,0.1,0.1,0.3,0.1,0.4c0,0.1,0,0.3,0.1,0.4L335.1,18.9L335.1,18.9z
	 M334.2,17.2c-0.1,0.1-0.3,0.1-0.4,0.1h-0.3v-0.9h0.3c0.1,0,0.3,0,0.4,0.1c0.2,0,0.3,0.2,0.2,0.4C334.4,17,334.3,17.1,334.2,17.2
	L334.2,17.2z M335.1,18.9c0-0.1,0-0.1,0-0.2v-0.3c0-0.3-0.1-0.5-0.3-0.7c-0.1-0.1-0.3-0.1-0.4-0.2c0.2,0,0.4-0.1,0.5-0.2
	c0.2-0.1,0.2-0.3,0.2-0.5c0-0.1,0-0.2-0.1-0.4c0-0.1-0.1-0.1-0.1-0.2c0-0.1-0.1-0.1-0.1-0.1l-0.1-0.1c-0.2-0.1-0.4-0.1-0.6-0.2h-1.5
	v3h0.8v-1.1h0.3c0.1,0,0.2,0,0.3,0.1c0.1,0,0.2,0.1,0.2,0.2c0,0.1,0.1,0.3,0.1,0.4c0,0.1,0,0.3,0.1,0.4L335.1,18.9L335.1,18.9z
	 M334.2,17.2c-0.1,0.1-0.3,0.1-0.4,0.1h-0.3v-0.9h0.3c0.1,0,0.3,0,0.4,0.1c0.2,0,0.3,0.2,0.2,0.4C334.4,17,334.3,17.1,334.2,17.2
	L334.2,17.2z M335.1,18.9c0-0.1,0-0.1,0-0.2v-0.3c0-0.3-0.1-0.5-0.3-0.7c-0.1-0.1-0.3-0.1-0.4-0.2c0.2,0,0.4-0.1,0.5-0.2
	c0.2-0.1,0.2-0.3,0.2-0.5c0-0.1,0-0.2-0.1-0.4c0-0.1-0.1-0.1-0.1-0.2c0-0.1-0.1-0.1-0.1-0.1l-0.1-0.1c-0.2-0.1-0.4-0.1-0.6-0.2h-1.5
	v3h0.8v-1.1h0.3c0.1,0,0.2,0,0.3,0.1c0.1,0,0.2,0.1,0.2,0.2c0,0.1,0.1,0.3,0.1,0.4c0,0.1,0,0.3,0.1,0.4L335.1,18.9L335.1,18.9z
	 M334.2,17.2c-0.1,0.1-0.3,0.1-0.4,0.1h-0.3v-0.9h0.3c0.1,0,0.3,0,0.4,0.1c0.2,0,0.3,0.2,0.2,0.4C334.4,17,334.3,17.1,334.2,17.2
	L334.2,17.2z M335.1,18.9c0-0.1,0-0.1,0-0.2v-0.3c0-0.3-0.1-0.5-0.3-0.7c-0.1-0.1-0.3-0.1-0.4-0.2c0.2,0,0.4-0.1,0.5-0.2
	c0.2-0.1,0.2-0.3,0.2-0.5c0-0.1,0-0.2-0.1-0.4c0-0.1-0.1-0.1-0.1-0.2c0-0.1-0.1-0.1-0.1-0.1l-0.1-0.1c-0.2-0.1-0.4-0.1-0.6-0.2h-1.5
	v3h0.8v-1.1h0.3c0.1,0,0.2,0,0.3,0.1c0.1,0,0.2,0.1,0.2,0.2c0,0.1,0.1,0.3,0.1,0.4c0,0.1,0,0.3,0.1,0.4L335.1,18.9L335.1,18.9z
	 M334.2,17.2c-0.1,0.1-0.3,0.1-0.4,0.1h-0.3v-0.9h0.3c0.1,0,0.3,0,0.4,0.1c0.2,0,0.3,0.2,0.2,0.4C334.4,17,334.3,17.1,334.2,17.2
	L334.2,17.2z M335.8,15.5c-0.5-0.5-1.2-0.8-1.9-0.8c-0.7,0-1.4,0.3-1.9,0.8c-0.6,0.5-0.9,1.2-0.9,2c0,1.2,0.8,2.3,2,2.7
	c1.2,0.3,2.5-0.2,3.1-1.3C336.9,17.8,336.7,16.4,335.8,15.5L335.8,15.5z M335.5,19.1c-0.4,0.4-1,0.7-1.6,0.7c-0.6,0-1.2-0.2-1.6-0.7
	c-0.9-0.9-0.9-2.3,0-3.2c0.9-0.9,2.3-0.9,3.2-0.1l0.1,0.1C336.4,16.7,336.4,18.2,335.5,19.1L335.5,19.1z M335.1,18.7v-0.3
	c0-0.3-0.1-0.5-0.3-0.7c-0.1-0.1-0.3-0.1-0.4-0.2c0.2,0,0.4-0.1,0.5-0.2c0.2-0.1,0.2-0.3,0.2-0.5c0-0.1,0-0.2-0.1-0.4
	c0-0.1-0.1-0.1-0.1-0.2c0-0.1-0.1-0.1-0.1-0.1l-0.1-0.1c-0.2-0.1-0.4-0.1-0.6-0.2h-1.5v3h0.8v-1.1h0.3c0.1,0,0.2,0,0.3,0.1
	c0.1,0,0.2,0.1,0.2,0.2c0,0.1,0.1,0.3,0.1,0.4c0,0.1,0,0.3,0.1,0.4h0.8l0-0.1C335.1,18.8,335.1,18.8,335.1,18.7L335.1,18.7z
	 M334.2,17.2c-0.1,0.1-0.3,0.1-0.4,0.1h-0.3v-0.9h0.3c0.1,0,0.3,0,0.4,0.1c0.2,0,0.3,0.2,0.2,0.4C334.4,17,334.3,17.1,334.2,17.2
	L334.2,17.2z M335.1,18.9c0-0.1,0-0.1,0-0.2v-0.3c0-0.3-0.1-0.5-0.3-0.7c-0.1-0.1-0.3-0.1-0.4-0.2c0.2,0,0.4-0.1,0.5-0.2
	c0.2-0.1,0.2-0.3,0.2-0.5c0-0.1,0-0.2-0.1-0.4c0-0.1-0.1-0.1-0.1-0.2c0-0.1-0.1-0.1-0.1-0.1l-0.1-0.1c-0.2-0.1-0.4-0.1-0.6-0.2h-1.5
	v3h0.8v-1.1h0.3c0.1,0,0.2,0,0.3,0.1c0.1,0,0.2,0.1,0.2,0.2c0,0.1,0.1,0.3,0.1,0.4c0,0.1,0,0.3,0.1,0.4L335.1,18.9L335.1,18.9z
	 M334.2,17.2c-0.1,0.1-0.3,0.1-0.4,0.1h-0.3v-0.9h0.3c0.1,0,0.3,0,0.4,0.1c0.2,0,0.3,0.2,0.2,0.4C334.4,17,334.3,17.1,334.2,17.2
	L334.2,17.2z"/>
<path id="Path" class="st0" d="M3.5,25.1l8.5,6.4c0,0,1-5.7,5.3-7.7c3.6-1.7,8.9-0.1,12.8,2c5.3,2.8,8.5,6.6,14.7,6.5
	c2.7,0,5.3-1,7.2-2.9v13.9c0,2.3-0.9,4.5-2.5,6.2c-1.6,1.6-3.9,2.5-6.2,2.5H8.7c-2.3,0-4.5-0.9-6.2-2.5S0,45.6,0,43.3V8.7
	c0-2.3,0.9-4.5,2.5-6.2S6.4,0,8.7,0h34.6c2.3,0,4.5,0.9,6.2,2.5C51.1,4.2,52,6.4,52,8.7v14l-5.2-4c0,0-0.5,6.7-5.5,8.6
	c-4.2,1.6-10.2-2-12.5-3.5c-6.8-4.5-12-5.5-15.7-5.5C8.7,18.2,4.8,21,3.5,25.1z"/>
</svg>
