<?xml version="1.0" encoding="utf-8"?>
<!-- Generator: Adobe Illustrator 23.0.0, SVG Export Plug-In . SVG Version: 6.00 Build 0)  -->
<svg version="1.1" id="Layer_1" xmlns="http://www.w3.org/2000/svg" xmlns:xlink="http://www.w3.org/1999/xlink" x="0px" y="0px"
	 viewBox="0 0 337 52" style="enable-background:new 0 0 337 52;" xml:space="preserve">
<style type="text/css">
	.st0{fill:#FFFFFF;}
	.st1{fill-rule:evenodd;clip-rule:evenodd;fill:#84D600;}
</style>
<path id="Shape" class="st0" d="M61.7,14v23.5h5.5V14H61.7z M85.6,24.3c-0.2-0.7-0.6-1.4-1.1-2c-0.5-0.6-1.1-1-1.8-1.3
	c-0.8-0.3-1.6-0.5-2.4-0.5c-0.5,0-1,0-1.5,0.2c-0.4,0.1-0.9,0.2-1.3,0.4c-0.4,0.2-0.8,0.4-1.1,0.6c-0.4,0.3-0.7,0.5-1,0.8l-0.3-1
	c-0.1-0.3-0.2-0.5-0.4-0.6c-0.2-0.1-0.5-0.2-0.8-0.2h-3.1v16.7h5V25.6c0.4-0.4,0.9-0.7,1.4-1c0.5-0.2,1-0.4,1.6-0.3
	c0.6,0,1.2,0.2,1.7,0.7c0.4,0.6,0.6,1.2,0.5,1.9v10.6h5V26.8C85.9,26,85.8,25.1,85.6,24.3z M94.5,18.6c0.1-0.3,0.3-0.6,0.5-0.9
	c0.2-0.2,0.5-0.4,0.9-0.5c0.4-0.1,0.8-0.1,1.2-0.1c0.1,0,0.3,0,0.4,0c0.1,0,0.3-0.1,0.4-0.2c0.1-0.1,0.2-0.2,0.3-0.3
	c0.1-0.1,0.1-0.3,0.1-0.4l0.1-2.4c-0.4-0.1-0.7-0.2-1.1-0.2c-1.3-0.2-2.7,0-4,0.4c-0.8,0.3-1.5,0.7-2.1,1.3c-0.6,0.6-1,1.3-1.3,2
	c-0.3,0.8-0.5,1.7-0.5,2.6v1h-2.4v2c0,0.3,0.1,0.6,0.3,0.8c0.3,0.2,0.6,0.3,0.9,0.4l1.1,0.2v13.3h5V24.2h3.8v-3.4h-3.9V20
	C94.4,19.5,94.4,19,94.5,18.6z M105.8,15c-0.2-0.4-0.4-0.7-0.7-0.9c-0.3-0.3-0.6-0.5-1-0.6c-0.4-0.1-0.8-0.2-1.2-0.2
	c-0.8,0-1.5,0.3-2.1,0.9c-0.3,0.3-0.5,0.6-0.6,0.9c-0.2,0.4-0.2,0.7-0.2,1.1c0,0.4,0.1,0.8,0.2,1.1c0.1,0.3,0.4,0.7,0.6,0.9
	c0.3,0.3,0.6,0.5,0.9,0.6c0.4,0.2,0.8,0.2,1.1,0.2c0.4,0,0.8-0.1,1.2-0.2c0.4-0.2,0.7-0.4,1-0.6c0.3-0.3,0.5-0.6,0.7-0.9
	c0.2-0.4,0.2-0.7,0.2-1.1C106.1,15.7,106,15.4,105.8,15z M100.5,20.7v16.7h5V20.7H100.5z M123.5,24.3c-0.2-0.7-0.6-1.4-1.1-2
	c-0.5-0.6-1.1-1-1.8-1.3c-0.8-0.3-1.6-0.5-2.4-0.5c-0.5,0-1,0-1.5,0.1c-0.4,0.1-0.9,0.2-1.3,0.4c-0.4,0.2-0.8,0.4-1.1,0.6
	c-0.4,0.3-0.7,0.5-1,0.8l-0.3-1c-0.1-0.3-0.2-0.5-0.4-0.6c-0.2-0.1-0.5-0.2-0.8-0.2h-3.1v16.8h5V25.6c0.4-0.4,0.9-0.7,1.4-1
	c0.5-0.2,1-0.4,1.5-0.3c0.6,0,1.2,0.2,1.7,0.7c0.4,0.6,0.6,1.2,0.5,1.9v10.6h5l0-10.6C123.9,26,123.8,25.1,123.5,24.3L123.5,24.3z
	 M132.3,15c-0.2-0.4-0.4-0.7-0.7-0.9c-0.6-0.6-1.4-0.9-2.2-0.8c-0.8,0-1.5,0.3-2.1,0.9c-0.3,0.3-0.5,0.6-0.7,0.9
	c-0.2,0.4-0.2,0.7-0.2,1.1c0,0.4,0.1,0.8,0.2,1.1c0.2,0.3,0.4,0.7,0.7,0.9c0.3,0.3,0.6,0.5,0.9,0.6c0.4,0.2,0.7,0.2,1.1,0.2
	c0.4,0,0.8-0.1,1.2-0.2c0.4-0.2,0.7-0.4,1-0.6c0.3-0.3,0.5-0.6,0.7-0.9c0.2-0.4,0.2-0.7,0.2-1.1C132.5,15.7,132.4,15.4,132.3,15
	L132.3,15z M127,20.7v16.8h5V20.7L127,20.7z M144.1,33.9c-0.1-0.1-0.2-0.2-0.3-0.3c-0.1-0.1-0.2-0.1-0.4-0.1c-0.1,0-0.2,0-0.3,0.1
	l-0.3,0.1c-0.1,0.1-0.2,0.1-0.3,0.1c-0.2,0-0.3,0.1-0.5,0.1c-0.3,0-0.6-0.1-0.8-0.4c-0.2-0.3-0.3-0.6-0.3-1v-8.3h4.1v-3.4H141v-4.9
	h-2.6c-0.5-0.1-1,0.3-1.1,0.8l-1,4.1l-2.7,0.5v2c0,0.3,0.1,0.5,0.2,0.7s0.4,0.3,0.7,0.3h1.4v8.6c0,0.7,0.1,1.4,0.3,2
	c0.4,1.2,1.3,2.1,2.5,2.5c0.7,0.2,1.4,0.4,2.1,0.3c0.8,0,1.7-0.1,2.5-0.4c0.8-0.2,1.5-0.6,2.2-1.1L144.1,33.9z M161.1,29.9
	c0.1-0.1,0.3-0.2,0.3-0.3c0.1-0.2,0.2-0.4,0.2-0.5c0-0.3,0.1-0.6,0-0.9c0-1.1-0.2-2.2-0.5-3.2c-0.3-0.9-0.9-1.7-1.5-2.4
	c-0.7-0.7-1.5-1.2-2.4-1.5c-2.1-0.7-4.4-0.7-6.5,0.1c-2,0.8-3.5,2.4-4.2,4.4c-0.4,1-0.6,2.1-0.6,3.2c0,1.3,0.2,2.7,0.7,3.9
	c0.4,1.1,1,2,1.8,2.9c0.8,0.7,1.7,1.3,2.7,1.7c1.1,0.4,2.2,0.6,3.3,0.5c0.6,0,1.2,0,1.8-0.1c0.6-0.1,1.3-0.2,1.9-0.4
	c0.6-0.2,1.3-0.5,1.8-0.9c0.6-0.4,1.2-0.9,1.7-1.4l-1.4-1.8c-0.2-0.3-0.5-0.4-0.9-0.4c-0.3,0-0.6,0.1-0.9,0.2l-0.9,0.5
	c-0.4,0.2-0.7,0.3-1.1,0.5c-0.5,0.1-1,0.2-1.5,0.2c-1,0-1.9-0.3-2.7-0.9c-0.8-0.8-1.2-1.9-1.3-3h9.6C160.6,30,160.8,30,161.1,29.9
	L161.1,29.9z M150.9,27c0.1-0.9,0.5-1.7,1.1-2.4c0.6-0.6,1.4-0.9,2.2-0.8c0.5,0,0.9,0.1,1.4,0.3c0.3,0.2,0.6,0.4,0.9,0.7
	c0.2,0.3,0.4,0.6,0.5,1c0.1,0.4,0.2,0.8,0.2,1.2L150.9,27z M187.9,18.6c-0.4-0.9-1-1.8-1.7-2.4c-0.9-0.7-1.9-1.3-3-1.6
	c-1.4-0.4-2.8-0.6-4.3-0.6h-8.3v23.5h5.4v-7.8h2.8c1.4,0,2.9-0.2,4.2-0.6c1.1-0.3,2.1-0.9,3-1.6c0.8-0.7,1.4-1.5,1.7-2.5
	c0.4-1,0.6-2.1,0.5-3.2C188.5,20.6,188.3,19.6,187.9,18.6z M182,24.5c-0.6,0.7-1.6,1-3.1,1h-2.8V18h2.8c0.6,0,1.2,0.1,1.8,0.3
	c0.5,0.1,0.9,0.4,1.3,0.7c0.3,0.3,0.6,0.7,0.7,1.1c0.2,0.5,0.2,1,0.2,1.5C183,22.7,182.7,23.7,182,24.5z M203.5,29.9
	c0.1-0.1,0.3-0.2,0.3-0.3c0.1-0.2,0.2-0.4,0.2-0.5c0-0.3,0.1-0.6,0.1-0.9c0-1.1-0.2-2.2-0.5-3.2c-0.3-0.9-0.9-1.7-1.5-2.4
	c-0.7-0.7-1.5-1.2-2.4-1.5c-2.1-0.7-4.4-0.7-6.5,0.1c-2,0.8-3.5,2.4-4.3,4.4c-0.4,1-0.6,2.1-0.5,3.2c0,1.3,0.2,2.7,0.7,3.9
	c0.4,1.1,1,2,1.9,2.8c0.8,0.7,1.7,1.3,2.7,1.7c1.1,0.4,2.2,0.6,3.3,0.5c0.6,0,1.2,0,1.8-0.1c0.6-0.1,1.3-0.2,1.9-0.4
	c0.6-0.2,1.3-0.5,1.8-0.9c0.6-0.4,1.2-0.9,1.7-1.4l-1.5-1.8c-0.2-0.3-0.6-0.4-0.9-0.4c-0.3,0-0.6,0.1-0.9,0.2l-0.9,0.5
	c-0.4,0.2-0.7,0.3-1.1,0.5c-0.5,0.1-1,0.2-1.5,0.2c-1,0-1.9-0.3-2.7-0.9c-0.8-0.8-1.2-1.9-1.3-3h9.6C203.1,30,203.3,30,203.5,29.9
	L203.5,29.9z M193.3,27.1c0.1-0.9,0.5-1.7,1.1-2.4c0.6-0.6,1.4-0.9,2.2-0.8c0.5,0,0.9,0.1,1.4,0.3c0.3,0.2,0.6,0.4,0.9,0.7
	c0.2,0.3,0.4,0.6,0.5,1c0.1,0.4,0.2,0.8,0.2,1.2L193.3,27.1z M215.7,20.4c-0.9,0-1.8,0.3-2.5,0.8c-0.8,0.6-1.5,1.4-2.1,2.2l-0.3-1.6
	c0-0.2-0.1-0.4-0.1-0.5c-0.1-0.1-0.1-0.3-0.3-0.4c-0.1-0.1-0.3-0.2-0.4-0.2c-0.2,0-0.4-0.1-0.6-0.1h-3v16.7h5V27.2
	c0.7-1.4,1.8-2.1,3.1-2.1c0.3,0,0.6,0,0.9,0.1c0.2,0,0.4,0.1,0.6,0.1c0.2,0,0.4,0,0.5-0.1c0.1-0.1,0.2-0.3,0.3-0.5l0.6-3.7
	C217,20.6,216.3,20.4,215.7,20.4z M225,15c-0.2-0.4-0.4-0.7-0.7-0.9c-0.6-0.6-1.4-0.9-2.2-0.9c-0.8,0-1.5,0.3-2.1,0.9
	c-0.3,0.3-0.5,0.6-0.6,0.9c-0.2,0.4-0.2,0.7-0.2,1.1c0,0.4,0.1,0.8,0.2,1.1c0.2,0.3,0.4,0.7,0.6,0.9c0.3,0.3,0.6,0.5,0.9,0.6
	c0.4,0.2,0.7,0.2,1.1,0.2c0.4,0,0.8-0.1,1.2-0.2c0.4-0.2,0.7-0.4,1-0.6c0.3-0.3,0.5-0.6,0.7-0.9c0.2-0.4,0.2-0.7,0.2-1.1
	C225.2,15.7,225.1,15.4,225,15L225,15z M219.6,20.7v16.7h5V20.7H219.6z M243.7,25.3c-0.3-1-0.7-1.9-1.3-2.7
	c-0.5-0.7-1.2-1.3-1.9-1.7c-0.7-0.4-1.6-0.6-2.4-0.6c-0.5,0-1.1,0.1-1.6,0.2c-0.5,0.1-0.9,0.3-1.4,0.5c-0.4,0.2-0.8,0.5-1.2,0.8
	c-0.4,0.3-0.7,0.6-1,1l-0.4-1.2c-0.1-0.3-0.2-0.5-0.4-0.6c-0.2-0.1-0.5-0.2-0.8-0.2h-3.1v22h5v-6.4c0.5,0.4,1,0.8,1.6,1
	c0.7,0.3,1.4,0.4,2.2,0.4c1,0,2-0.2,2.9-0.7c0.9-0.4,1.6-1.1,2.3-1.8c0.7-0.8,1.1-1.8,1.5-2.8c0.4-1.1,0.6-2.3,0.5-3.5
	C244.2,27.7,244,26.5,243.7,25.3L243.7,25.3z M238.7,31.3c-0.1,0.6-0.4,1.1-0.7,1.6c-0.3,0.4-0.6,0.7-1,0.9
	c-0.4,0.2-0.8,0.3-1.3,0.3c-0.5,0-0.9-0.1-1.4-0.2c-0.5-0.2-0.9-0.5-1.2-0.9v-7.1c0.2-0.2,0.4-0.5,0.6-0.7c0.2-0.2,0.4-0.4,0.7-0.5
	c0.3-0.1,0.5-0.2,0.8-0.3c0.3-0.1,0.7-0.1,1-0.1c0.4,0,0.7,0.1,1.1,0.2c0.3,0.2,0.6,0.5,0.8,0.8c0.3,0.5,0.4,0.9,0.5,1.5
	c0.1,0.7,0.2,1.5,0.2,2.2C239,29.8,238.9,30.5,238.7,31.3z M261,24.3c-0.2-0.7-0.6-1.4-1.1-2c-0.5-0.6-1.1-1-1.8-1.3
	c-0.8-0.3-1.6-0.5-2.4-0.5c-0.9,0-1.7,0.1-2.5,0.5c-0.7,0.3-1.4,0.7-2,1.2v-8.9h-5v24.1h5V25.6c0.4-0.4,0.9-0.7,1.4-1
	c0.5-0.2,1-0.4,1.6-0.3c0.6,0,1.2,0.2,1.7,0.7c0.4,0.6,0.6,1.2,0.5,1.9v10.6h5V26.8C261.4,26,261.2,25.1,261,24.3L261,24.3z
	 M278.5,29.9c0.1-0.1,0.3-0.2,0.3-0.3c0.1-0.2,0.2-0.4,0.2-0.5c0-0.3,0.1-0.6,0-0.9c0-1.1-0.2-2.2-0.5-3.2c-0.3-0.9-0.9-1.7-1.6-2.4
	c-0.7-0.7-1.5-1.2-2.4-1.5c-2.1-0.7-4.4-0.7-6.5,0.1c-2,0.8-3.5,2.4-4.2,4.4c-0.4,1-0.6,2.1-0.5,3.2c0,1.3,0.2,2.7,0.7,3.9
	c0.4,1.1,1,2,1.8,2.8c0.8,0.8,1.7,1.3,2.7,1.7c1,0.4,2.2,0.6,3.3,0.5c0.6,0,1.2,0,1.8-0.1c0.6-0.1,1.3-0.2,1.9-0.4
	c0.6-0.2,1.3-0.5,1.8-0.9c0.6-0.4,1.2-0.9,1.7-1.4l-1.5-1.8c-0.2-0.3-0.5-0.5-0.9-0.4c-0.3,0-0.6,0.1-0.9,0.2l-0.9,0.5
	c-0.4,0.2-0.7,0.3-1.1,0.5c-0.5,0.2-1,0.2-1.5,0.2c-1,0-1.9-0.3-2.7-0.9c-0.8-0.8-1.2-1.9-1.3-3h9.6C278.2,30,278.3,30,278.5,29.9
	L278.5,29.9z M268.4,27.1c0.1-0.9,0.5-1.7,1.1-2.4c0.6-0.6,1.4-0.9,2.2-0.8c0.5,0,0.9,0.1,1.4,0.3c0.4,0.2,0.7,0.4,0.9,0.7
	c0.2,0.3,0.4,0.6,0.5,1c0.1,0.4,0.2,0.8,0.2,1.2L268.4,27.1z M290.7,20.4c-0.9,0-1.8,0.3-2.5,0.8c-0.8,0.6-1.5,1.4-2.1,2.2l-0.3-1.6
	c0-0.2-0.1-0.4-0.2-0.5c-0.1-0.1-0.1-0.3-0.3-0.4c-0.1-0.1-0.3-0.2-0.4-0.2c-0.2,0-0.4-0.1-0.6-0.1h-3v16.7h5V27.2
	c0.8-1.4,1.8-2.1,3.1-2.1c0.3,0,0.6,0,0.9,0.1c0.2,0,0.4,0.1,0.6,0.1c0.2,0,0.4,0,0.5-0.1c0.1-0.1,0.2-0.3,0.3-0.5l0.6-3.7
	C292,20.5,291.4,20.4,290.7,20.4L290.7,20.4z M307.3,24.4c-0.3-0.8-0.7-1.5-1.3-2.1c-0.6-0.6-1.3-1.1-2.1-1.4
	c-0.9-0.3-1.8-0.5-2.7-0.5c-1.3,0-2.7,0.2-4,0.6c-1.2,0.4-2.4,1.1-3.4,2l0.9,1.6c0.1,0.2,0.3,0.4,0.5,0.6c0.3,0.2,0.6,0.3,0.9,0.2
	c0.3,0,0.7-0.1,1-0.2c0.3-0.1,0.5-0.3,0.9-0.4c0.3-0.2,0.7-0.3,1-0.4c0.5-0.1,1-0.2,1.4-0.2c0.6,0,1.3,0.2,1.7,0.7
	c0.5,0.6,0.7,1.4,0.6,2.1v0.7c-1.6,0-3.2,0.2-4.8,0.5c-1.1,0.3-2.1,0.7-3,1.3c-0.7,0.4-1.2,1-1.6,1.7c-0.3,0.6-0.5,1.2-0.5,1.8
	c0,0.7,0.1,1.4,0.4,2c0.2,0.6,0.6,1,1,1.4c0.5,0.4,1,0.7,1.6,0.9c0.7,0.2,1.4,0.3,2.1,0.3c0.5,0,1,0,1.6-0.1
	c0.5-0.1,0.9-0.2,1.3-0.4c0.4-0.2,0.8-0.4,1.2-0.7c0.4-0.3,0.8-0.6,1.2-0.9l0.4,0.9c0.1,0.3,0.3,0.6,0.6,0.8
	c0.3,0.1,0.7,0.2,1.1,0.2h2.3V27C307.7,26.1,307.6,25.2,307.3,24.4z M302.9,33c-0.4,0.5-0.9,0.8-1.5,1.1c-0.5,0.2-1.1,0.3-1.7,0.3
	c-0.5,0-1-0.1-1.4-0.3c-0.3-0.3-0.5-0.8-0.5-1.2c0-0.3,0.1-0.6,0.2-0.8c0.2-0.3,0.5-0.5,0.8-0.7c0.5-0.2,1-0.4,1.5-0.5
	c0.8-0.1,1.6-0.2,2.5-0.2V33z M310.7,13.3v24.1h5V13.3H310.7z M330.2,30.3c-0.2-0.5-0.5-0.9-0.9-1.2c-0.4-0.3-0.8-0.6-1.2-0.9
	c-0.5-0.2-0.9-0.4-1.4-0.6c-0.5-0.2-1-0.3-1.4-0.5c-0.5-0.1-0.9-0.3-1.2-0.4c-0.3-0.1-0.6-0.3-0.9-0.5c-0.2-0.2-0.3-0.5-0.3-0.8
	c0-0.4,0.2-0.8,0.5-1c0.4-0.3,0.9-0.4,1.5-0.4c0.4,0,0.8,0,1.2,0.2c0.3,0.1,0.6,0.2,0.9,0.3l0.8,0.3c0.2,0.1,0.5,0.2,0.7,0.2
	c0.2,0,0.4,0,0.5-0.1c0.2-0.1,0.3-0.3,0.4-0.4l1.1-1.8c-0.3-0.3-0.7-0.6-1.1-0.9c-0.4-0.3-0.9-0.5-1.4-0.7c-0.5-0.2-1-0.4-1.6-0.4
	c-1.6-0.3-3.1-0.2-4.7,0.3c-0.8,0.3-1.5,0.7-2.1,1.2c-0.5,0.5-1,1-1.2,1.7c-0.5,1.3-0.6,2.7-0.1,4c0.2,0.5,0.5,1,0.9,1.4
	c0.4,0.4,0.8,0.7,1.3,0.9c0.5,0.2,0.9,0.4,1.4,0.6c0.5,0.2,1,0.3,1.4,0.5c0.4,0.1,0.8,0.3,1.2,0.4c0.3,0.1,0.6,0.3,0.9,0.5
	c0.2,0.2,0.3,0.5,0.3,0.8c0,0.2,0,0.4-0.1,0.5c-0.1,0.2-0.2,0.3-0.4,0.5c-0.2,0.2-0.4,0.3-0.6,0.3c-0.3,0.1-0.6,0.1-1,0.1
	c-0.5,0-0.9,0-1.4-0.2c-0.3-0.1-0.6-0.3-0.9-0.4l-0.8-0.4c-0.2-0.1-0.5-0.2-0.8-0.2c-0.3,0-0.5,0.1-0.8,0.2
	c-0.2,0.1-0.4,0.3-0.5,0.5l-1.2,1.8c0.4,0.3,0.8,0.6,1.2,0.8c0.5,0.3,1,0.5,1.5,0.6c0.5,0.2,1.1,0.3,1.6,0.4
	c0.6,0.1,1.1,0.2,1.7,0.2c1,0,2-0.1,3-0.4c0.8-0.2,1.6-0.6,2.2-1.2c0.6-0.5,1-1.1,1.3-1.8c0.3-0.7,0.5-1.5,0.5-2.3
	C330.6,31.4,330.5,30.8,330.2,30.3L330.2,30.3z M334.8,19.1c0-0.1,0-0.1,0-0.2v-0.3c0-0.3-0.1-0.5-0.3-0.7c-0.1-0.1-0.3-0.1-0.4-0.2
	c0.2,0,0.4-0.1,0.5-0.2c0.2-0.1,0.2-0.3,0.2-0.5c0-0.2,0-0.4-0.2-0.5c0-0.1-0.1-0.1-0.1-0.1l-0.1-0.1c-0.2-0.1-0.4-0.1-0.6-0.2h-1.5
	v3h0.8v-1.1h0.3c0.1,0,0.2,0,0.3,0.1c0.1,0,0.2,0.1,0.2,0.2c0,0.1,0.1,0.3,0.1,0.4c0,0.1,0,0.3,0.1,0.4L334.8,19.1L334.8,19.1z
	 M333.9,17.4c-0.1,0.1-0.3,0.1-0.4,0.1h-0.3v-0.9h0.3c0.1,0,0.3,0,0.4,0.1c0.2,0,0.3,0.2,0.2,0.4C334.1,17.2,334,17.3,333.9,17.4
	L333.9,17.4z M334.8,19.1c0-0.1,0-0.1,0-0.2v-0.3c0-0.3-0.1-0.5-0.3-0.7c-0.1-0.1-0.3-0.1-0.4-0.2c0.2,0,0.4-0.1,0.5-0.2
	c0.2-0.1,0.2-0.3,0.2-0.5c0-0.1,0-0.2-0.1-0.4c0-0.1-0.1-0.1-0.1-0.2c0-0.1-0.1-0.1-0.1-0.1l-0.1-0.1c-0.2-0.1-0.4-0.1-0.6-0.2h-1.5
	v3h0.8v-1.1h0.3c0.1,0,0.2,0,0.3,0.1c0.1,0,0.2,0.1,0.2,0.2c0,0.1,0.1,0.3,0.1,0.4c0,0.1,0,0.3,0.1,0.4L334.8,19.1L334.8,19.1z
	 M333.9,17.4c-0.1,0.1-0.3,0.1-0.4,0.1h-0.3v-0.9h0.3c0.1,0,0.3,0,0.4,0.1c0.2,0,0.3,0.2,0.2,0.4C334.1,17.2,334,17.3,333.9,17.4
	L333.9,17.4z M334.8,19.1c0-0.1,0-0.1,0-0.2v-0.3c0-0.3-0.1-0.5-0.3-0.7c-0.1-0.1-0.3-0.1-0.4-0.2c0.2,0,0.4-0.1,0.5-0.2
	c0.2-0.1,0.2-0.3,0.2-0.5c0-0.1,0-0.2-0.1-0.4c0-0.1-0.1-0.1-0.1-0.2c0-0.1-0.1-0.1-0.1-0.1l-0.1-0.1c-0.2-0.1-0.4-0.1-0.6-0.2h-1.5
	v3h0.8v-1.1h0.3c0.1,0,0.2,0,0.3,0.1c0.1,0,0.2,0.1,0.2,0.2c0,0.1,0.1,0.3,0.1,0.4c0,0.1,0,0.3,0.1,0.4L334.8,19.1L334.8,19.1z
	 M333.9,17.4c-0.1,0.1-0.3,0.1-0.4,0.1h-0.3v-0.9h0.3c0.1,0,0.3,0,0.4,0.1c0.2,0,0.3,0.2,0.2,0.4C334.1,17.2,334,17.3,333.9,17.4
	L333.9,17.4z M334.8,19.1c0-0.1,0-0.1,0-0.2v-0.3c0-0.3-0.1-0.5-0.3-0.7c-0.1-0.1-0.3-0.1-0.4-0.2c0.2,0,0.4-0.1,0.5-0.2
	c0.2-0.1,0.2-0.3,0.2-0.5c0-0.1,0-0.2-0.1-0.4c0-0.1-0.1-0.1-0.1-0.2c0-0.1-0.1-0.1-0.1-0.1l-0.1-0.1c-0.2-0.1-0.4-0.1-0.6-0.2h-1.5
	v3h0.8v-1.1h0.3c0.1,0,0.2,0,0.3,0.1c0.1,0,0.2,0.1,0.2,0.2c0,0.1,0.1,0.3,0.1,0.4c0,0.1,0,0.3,0.1,0.4L334.8,19.1L334.8,19.1z
	 M333.9,17.4c-0.1,0.1-0.3,0.1-0.4,0.1h-0.3v-0.9h0.3c0.1,0,0.3,0,0.4,0.1c0.2,0,0.3,0.2,0.2,0.4C334.1,17.2,334,17.3,333.9,17.4
	L333.9,17.4z M335.5,15.7c-0.5-0.5-1.2-0.8-1.9-0.8c-0.7,0-1.4,0.3-1.9,0.8c-0.6,0.5-0.9,1.2-0.9,2c0,1.2,0.8,2.3,2,2.7
	c1.2,0.3,2.5-0.2,3.1-1.3C336.6,18,336.4,16.6,335.5,15.7L335.5,15.7z M335.2,19.3c-0.4,0.4-1,0.7-1.6,0.7c-0.6,0-1.2-0.2-1.6-0.7
	c-0.9-0.9-0.9-2.3,0-3.2c0.9-0.9,2.3-0.9,3.2-0.1l0.1,0.1C336.1,16.9,336.1,18.4,335.2,19.3L335.2,19.3z M334.8,18.9v-0.3
	c0-0.3-0.1-0.5-0.3-0.7c-0.1-0.1-0.3-0.1-0.4-0.2c0.2,0,0.4-0.1,0.5-0.2c0.2-0.1,0.2-0.3,0.2-0.5c0-0.1,0-0.2-0.1-0.4
	c0-0.1-0.1-0.1-0.1-0.2c0-0.1-0.1-0.1-0.1-0.1l-0.1-0.1c-0.2-0.1-0.4-0.1-0.6-0.2h-1.5v3h0.8v-1.1h0.3c0.1,0,0.2,0,0.3,0.1
	c0.1,0,0.2,0.1,0.2,0.2c0,0.1,0.1,0.3,0.1,0.4c0,0.1,0,0.3,0.1,0.4h0.8l0-0.1C334.8,19,334.8,19,334.8,18.9L334.8,18.9z M333.9,17.4
	c-0.1,0.1-0.3,0.1-0.4,0.1h-0.3v-0.9h0.3c0.1,0,0.3,0,0.4,0.1c0.2,0,0.3,0.2,0.2,0.4C334.1,17.2,334,17.3,333.9,17.4L333.9,17.4z
	 M334.8,19.1c0-0.1,0-0.1,0-0.2v-0.3c0-0.3-0.1-0.5-0.3-0.7c-0.1-0.1-0.3-0.1-0.4-0.2c0.2,0,0.4-0.1,0.5-0.2
	c0.2-0.1,0.2-0.3,0.2-0.5c0-0.1,0-0.2-0.1-0.4c0-0.1-0.1-0.1-0.1-0.2c0-0.1-0.1-0.1-0.1-0.1l-0.1-0.1c-0.2-0.1-0.4-0.1-0.6-0.2h-1.5
	v3h0.8v-1.1h0.3c0.1,0,0.2,0,0.3,0.1c0.1,0,0.2,0.1,0.2,0.2c0,0.1,0.1,0.3,0.1,0.4c0,0.1,0,0.3,0.1,0.4L334.8,19.1L334.8,19.1z
	 M333.9,17.4c-0.1,0.1-0.3,0.1-0.4,0.1h-0.3v-0.9h0.3c0.1,0,0.3,0,0.4,0.1c0.2,0,0.3,0.2,0.2,0.4C334.1,17.2,334,17.3,333.9,17.4
	L333.9,17.4z"/>
<path id="Path" class="st1" d="M3.5,25.1l8.5,6.4c0,0,1-5.7,5.3-7.7c3.6-1.7,8.9-0.1,12.8,2c5.3,2.8,8.5,6.6,14.7,6.5
	c2.7,0,5.3-1,7.2-2.9v13.9c0,2.3-0.9,4.5-2.5,6.2c-1.6,1.6-3.9,2.5-6.2,2.5H8.7c-2.3,0-4.5-0.9-6.2-2.5S0,45.6,0,43.3V8.7
	c0-2.3,0.9-4.5,2.5-6.2S6.4,0,8.7,0h34.6c2.3,0,4.5,0.9,6.2,2.5C51.1,4.2,52,6.4,52,8.7v14l-5.2-4c0,0-0.5,6.7-5.5,8.6
	c-4.2,1.6-10.2-2-12.5-3.5c-6.8-4.5-12-5.5-15.7-5.5C8.7,18.2,4.8,21,3.5,25.1z"/>
</svg>
