<?xml version="1.0" encoding="utf-8"?>
<!-- Generator: Adobe Illustrator 23.0.0, SVG Export Plug-In . SVG Version: 6.00 Build 0)  -->
<svg version="1.1" id="Layer_1" xmlns="http://www.w3.org/2000/svg" xmlns:xlink="http://www.w3.org/1999/xlink" x="0px" y="0px"
	 viewBox="0 0 184 55" style="enable-background:new 0 0 184 55;" xml:space="preserve">
<style type="text/css">
	.st0{fill-rule:evenodd;clip-rule:evenodd;fill:#FFFFFF;}
	.st1{fill-rule:evenodd;clip-rule:evenodd;fill:#84D600;}
</style>
<path id="Combined-Shape" class="st0" d="M65.8,9.8h3.6v16.5h-3.6V9.8z M82.7,18.8v7.4h-3.3v-7.4c0.1-0.5-0.1-1-0.4-1.5
	c-0.3-0.4-0.7-0.5-1.2-0.5c-0.1,0-0.1,0-0.1,0c-0.4,0-0.9,0.1-1.2,0.3c-0.4,0.2-0.7,0.4-1,0.7l-0.1,0.1v8.4h-3.3V14.5h2.1
	c0.2,0,0.4,0.1,0.5,0.1c0.2,0.1,0.3,0.2,0.3,0.4l0.3,1l0.2-0.2c0.2-0.2,0.4-0.4,0.7-0.6c0.3-0.2,0.5-0.3,0.7-0.4
	c0.6-0.3,1.2-0.4,1.9-0.4c0.6,0,1.2,0.1,1.7,0.3c0.5,0.2,0.9,0.5,1.2,0.9c0.4,0.5,0.6,1,0.7,1.4C82.6,17.5,82.7,18.2,82.7,18.8z
	 M92,9.6l-0.1,1.6c0,0.1,0,0.2-0.1,0.2c-0.1,0.1-0.1,0.1-0.2,0.2c-0.1,0-0.1,0.1-0.2,0.1c-0.1,0-0.1,0.1-0.2,0.1s-0.2,0-0.3,0
	c-0.1,0-0.2,0-0.2,0c-0.2,0-0.4,0.1-0.6,0.1c-0.3,0.1-0.5,0.2-0.7,0.4c-0.2,0.2-0.3,0.4-0.4,0.7c-0.1,0.4-0.2,0.7-0.1,1v0.7h2.8v2.1
	h-2.7v9.5H86v-9.5L85,16.6c-0.2-0.1-0.4-0.1-0.6-0.3c-0.2-0.1-0.2-0.3-0.2-0.4v-1.3H86v-0.9c0-0.6,0.1-1.2,0.3-1.8
	c0.2-0.5,0.5-1,0.9-1.3c0.5-0.4,1-0.7,1.4-0.9c0.6-0.2,1.3-0.3,2-0.3c0.3,0,0.5,0,0.8,0.1C91.6,9.5,91.8,9.6,92,9.6z M93.8,14.6h3.3
	v11.7h-3.3V14.6z M97.3,10.4c0.1,0.2,0.2,0.4,0.2,0.8c0,0.2-0.1,0.5-0.2,0.7c-0.1,0.2-0.3,0.4-0.5,0.6c-0.2,0.2-0.4,0.3-0.6,0.4
	c-0.2,0.1-0.5,0.2-0.8,0.2c-0.1,0-0.1,0-0.2,0c-0.2,0-0.4-0.1-0.6-0.2c-0.3-0.1-0.5-0.2-0.6-0.4c-0.2-0.2-0.3-0.4-0.4-0.6
	c-0.1-0.2-0.2-0.4-0.2-0.7c0-0.2,0.1-0.5,0.2-0.7c0.2-0.4,0.6-0.8,1.1-1c0.2-0.1,0.4-0.2,0.7-0.2h0.1c0.5,0,0.9,0.2,1.3,0.5
	C97.1,10,97.2,10.2,97.3,10.4z M110.1,18.8v7.4h-3.3v-7.4c0.1-0.5-0.1-1-0.4-1.5c-0.3-0.4-0.7-0.5-1.2-0.5c-0.1,0-0.1,0-0.1,0
	c-0.4,0-0.9,0.1-1.2,0.3c-0.4,0.2-0.7,0.4-1,0.7l-0.1,0.1v8.4h-3.3V14.6h2.1c0.2,0,0.4,0.1,0.5,0.1c0.2,0.1,0.3,0.2,0.3,0.4l0.3,1
	l0.2-0.2c0.2-0.2,0.4-0.4,0.7-0.6l0.1-0.1c0.2-0.1,0.4-0.3,0.7-0.4c0.6-0.3,1.2-0.4,1.9-0.4c0.6,0,1.2,0.1,1.7,0.3
	c0.4,0.2,0.9,0.5,1.2,0.9c0.4,0.5,0.6,1,0.7,1.4C110.1,17.6,110.1,18.2,110.1,18.8z M112.4,14.6h3.3v11.7h-3.3V14.6z M116,10.4
	c0.1,0.3,0.2,0.5,0.2,0.7c0,0.2-0.1,0.5-0.2,0.7c-0.1,0.2-0.2,0.4-0.4,0.6c-0.2,0.2-0.4,0.3-0.6,0.4c-0.2,0.1-0.5,0.2-0.8,0.2
	c-0.1,0-0.1,0-0.2,0c-0.2,0-0.4-0.1-0.6-0.2c-0.3-0.1-0.4-0.2-0.6-0.4c-0.2-0.2-0.3-0.4-0.4-0.6c-0.1-0.2-0.2-0.4-0.2-0.7
	c0-0.2,0.1-0.5,0.2-0.7c0.1-0.3,0.2-0.5,0.4-0.6c0.2-0.2,0.4-0.3,0.6-0.4c0.2-0.1,0.4-0.2,0.7-0.2s0.6,0.1,0.8,0.2
	c0.3,0.2,0.5,0.3,0.6,0.4C115.7,10,115.9,10.2,116,10.4z M125.9,25.6c-0.4,0.3-0.9,0.5-1.4,0.6c-0.5,0.2-1.1,0.3-1.8,0.3
	c-0.5,0-1-0.1-1.4-0.3c-0.4-0.1-0.7-0.4-1-0.7c-0.3-0.3-0.5-0.6-0.6-1.1c-0.2-0.5-0.2-1-0.2-1.4v-6.3h-1.2c-0.2,0-0.3-0.1-0.4-0.2
	c-0.1-0.1-0.2-0.3-0.2-0.4v-1.3l1.9-0.4l0.7-3c0.1-0.3,0.3-0.4,0.5-0.4h0.1h1.7v3.5h2.9v2.1h-2.9v6.2c-0.1,0.3,0.1,0.5,0.2,0.7
	c0.2,0.2,0.4,0.3,0.7,0.3c0.1,0,0.3,0,0.4-0.1c0.1,0,0.2-0.1,0.2-0.1l0.2-0.1h0.1c0.1,0,0.1,0,0.2,0.1c0,0,0.1,0.1,0.1,0.2
	L125.9,25.6z M137.3,17.4c0.3,0.7,0.4,1.4,0.5,2.4c0,0.2,0,0.4-0.1,0.6c0,0.1-0.1,0.3-0.1,0.3c-0.1,0.1-0.1,0.2-0.2,0.2
	c-0.2,0-0.3,0.1-0.4,0.1h-7.1v0.2c0.2,1.1,0.5,1.8,1,2.2c0.5,0.4,1.2,0.7,1.9,0.7c0.1,0,0.2,0,0.2,0c0.4,0,0.8-0.1,1.1-0.2
	c0.3-0.1,0.6-0.2,0.9-0.4l0.6-0.3c0.2-0.1,0.3-0.1,0.5-0.1c0.1,0,0.1,0,0.1,0c0.2,0,0.3,0.1,0.4,0.2l1,1.2c-0.3,0.3-0.6,0.6-1.1,0.9
	c-0.4,0.3-0.9,0.5-1.3,0.6c-0.5,0.1-0.9,0.2-1.3,0.3h-0.1c-0.4,0-0.7,0.1-1.2,0.1c-0.7,0-1.6-0.2-2.3-0.4c-0.6-0.2-1.2-0.6-1.9-1.2
	c-0.5-0.5-1-1.2-1.3-2c-0.4-0.9-0.5-1.8-0.5-2.7c0-0.7,0.2-1.6,0.4-2.2c0.5-1.4,1.6-2.5,2.9-3.1c0.7-0.3,1.6-0.5,2.4-0.5
	c0.7,0,1.4,0.2,2.1,0.4c0.6,0.3,1.2,0.6,1.7,1.1C136.7,16.2,137,16.8,137.3,17.4z M134.8,19.1V19c0-0.3-0.1-0.6-0.1-0.9
	c-0.1-0.3-0.2-0.5-0.4-0.7c-0.2-0.3-0.5-0.5-0.7-0.6c-0.3-0.2-0.7-0.2-1-0.2c0,0-0.1,0-0.1,0c-0.6,0-1.2,0.2-1.6,0.6
	c-0.5,0.5-0.7,1.1-0.8,1.7v0.2H134.8z M77.5,33.7c0.2,0.6,0.4,1.2,0.5,2.2c0,0.7-0.2,1.5-0.4,2.2c-0.3,0.7-0.6,1.3-1.2,1.7
	c-0.7,0.5-1.4,0.9-2.1,1.1c-0.9,0.3-1.8,0.4-2.7,0.4c-0.1,0-0.2,0-0.3,0h-2.2V47h-3.6V30.4h5.8c0.1,0,0.2,0,0.3,0
	c0.9,0,1.8,0.2,2.7,0.4c0.7,0.2,1.4,0.6,2,1.1C76.8,32.5,77.2,33.1,77.5,33.7z M73.5,38c0.5-0.6,0.7-1.4,0.7-2.2
	c0-0.3-0.1-0.7-0.2-1.1c-0.1-0.4-0.3-0.7-0.5-0.9c-0.3-0.3-0.6-0.4-1-0.5c-0.5-0.2-1-0.2-1.3-0.2H69v5.7h2.2
	C72.3,38.8,73.1,38.5,73.5,38z M88.6,41.6l-0.4,0.2h-7v0.2c0.1,1,0.4,1.8,1,2.3c0.5,0.4,1.2,0.7,1.9,0.7c0.1,0,0.2,0,0.2,0
	c0.4,0,0.8-0.1,1.1-0.2c0.3-0.1,0.5-0.2,0.8-0.3l0.6-0.3c0.2-0.1,0.3-0.1,0.5-0.1c0.1,0,0.1,0,0.1,0c0.2,0,0.3,0.1,0.4,0.2l1,1.2
	c-0.3,0.3-0.6,0.6-1.1,0.9c-0.3,0.3-0.7,0.4-1.3,0.6c-0.4,0.1-0.9,0.2-1.3,0.3H85c-0.4,0-0.8,0.1-1.2,0.1c-0.7,0-1.6-0.2-2.3-0.4
	c-0.6-0.2-1.2-0.6-1.9-1.2c-0.5-0.5-1-1.2-1.3-2c-0.4-1-0.5-1.8-0.5-2.7c0-0.7,0.2-1.4,0.4-2.2c0.5-1.4,1.6-2.5,2.9-3.1
	c0.7-0.3,1.6-0.5,2.4-0.5c0.7,0,1.5,0.1,2.1,0.4c0.6,0.2,1.1,0.6,1.6,1.1c0.4,0.4,0.8,1,1.1,1.7c0.3,0.6,0.4,1.4,0.4,2.2
	c0,0.2,0,0.4-0.1,0.6c0,0.2-0.1,0.3-0.1,0.4C88.7,41.5,88.6,41.6,88.6,41.6z M86,39.8v-0.1c0-0.3-0.1-0.6-0.1-0.9
	c-0.1-0.3-0.2-0.5-0.4-0.7c-0.2-0.3-0.5-0.5-0.7-0.6c-0.3-0.2-0.7-0.2-1-0.2h-0.1c-0.6,0-1.1,0.2-1.6,0.6c-0.5,0.5-0.7,1.1-0.8,1.7
	v0.2H86z M98.2,35.3l-0.4,2.5c0,0.1-0.1,0.2-0.1,0.2c-0.1,0.1-0.2,0.1-0.3,0.1c-0.2,0-0.3,0-0.4-0.1C96.7,38,96.5,38,96.3,38
	c-1,0-1.8,0.5-2.4,1.6v0.1v7.2h-3.3V35.3h2c0.2,0,0.3,0,0.4,0.1c0.1,0,0.2,0.1,0.2,0.1c0.1,0.1,0.1,0.1,0.2,0.2
	c0,0.1,0.1,0.1,0.1,0.2c0,0.1,0.1,0.1,0.1,0.2l0.3,1.5l0.2-0.4c0.4-0.6,0.9-1.1,1.4-1.6c0.5-0.4,1.1-0.6,1.7-0.6
	C97.5,35,97.9,35.1,98.2,35.3z M100,35.3h3.3V47H100V35.3z M103.5,31.1c0.1,0.2,0.2,0.5,0.2,0.8c0,0.2-0.1,0.5-0.2,0.7
	c-0.1,0.2-0.2,0.4-0.4,0.6c-0.2,0.2-0.4,0.3-0.6,0.4c-0.2,0.1-0.5,0.2-0.8,0.2c-0.1,0-0.1,0-0.2,0c-0.2,0-0.4-0.1-0.6-0.2
	c-0.3-0.1-0.5-0.2-0.6-0.4c-0.2-0.2-0.3-0.4-0.4-0.6s-0.2-0.4-0.2-0.7c0-0.2,0.1-0.5,0.2-0.7c0.1-0.3,0.3-0.5,0.4-0.6
	c0.2-0.2,0.4-0.3,0.6-0.4c0.2-0.1,0.4-0.2,0.7-0.2s0.6,0.1,0.8,0.2C102.9,30.3,103.3,30.6,103.5,31.1z M116.8,38.5
	c0.2,0.9,0.3,1.7,0.2,2.5c0,0.9-0.1,1.7-0.4,2.5c-0.2,0.7-0.6,1.4-1,1.9c-0.4,0.6-1,1-1.6,1.3c-0.6,0.3-1.3,0.5-2,0.5
	c-0.1,0-0.2,0-0.2,0c-0.4,0-0.9-0.1-1.3-0.3c-0.4-0.2-0.8-0.4-1.1-0.7l-0.3-0.2v4.9h-3.3V35.4h2.1c0.2,0,0.4,0.1,0.5,0.1
	c0.2,0.1,0.3,0.2,0.3,0.3l0.4,1.2l0.2-0.2c0.2-0.3,0.5-0.5,0.7-0.7c0.3-0.2,0.6-0.4,0.9-0.5c0.3-0.2,0.6-0.3,0.9-0.3
	c0.3-0.1,0.7-0.1,1.1-0.1c0.6,0,1.1,0.1,1.7,0.4c0.5,0.3,1,0.6,1.3,1.1C116.3,37.2,116.7,37.8,116.8,38.5z M113.6,42.8
	c0.1-0.5,0.2-1.1,0.1-1.8c0-0.6-0.1-1.1-0.2-1.6c-0.1-0.4-0.2-0.7-0.4-1.1c-0.2-0.3-0.4-0.5-0.6-0.6s-0.5-0.2-0.9-0.2
	c-0.3,0-0.5,0.1-0.7,0.1c-0.3,0.1-0.4,0.2-0.6,0.2c-0.2,0.1-0.4,0.2-0.5,0.4c-0.2,0.1-0.3,0.3-0.5,0.5l-0.1,0.1v5.2l0.1,0.1
	c0.3,0.3,0.5,0.5,1,0.7c0.4,0.2,0.7,0.2,1.1,0.2s0.6-0.1,1-0.2c0.3-0.2,0.5-0.4,0.7-0.7C113.4,43.5,113.6,43.2,113.6,42.8z
	 M129.4,39.5V47h-3.2v-7.4c0.1-0.5-0.1-1-0.4-1.5c-0.3-0.4-0.7-0.5-1.2-0.5c-0.1,0-0.1,0-0.1,0c-0.4,0-0.9,0.1-1.2,0.3
	c-0.4,0.2-0.7,0.4-1,0.7l-0.1,0.1V47H119V30h3.3v6.6l0.3-0.2c0.5-0.4,0.9-0.6,1.4-0.9c0.6-0.2,1.2-0.3,1.8-0.3s1.2,0.1,1.7,0.3
	c0.5,0.2,0.9,0.5,1.2,0.9c0.4,0.5,0.6,1,0.7,1.4C129.4,38.2,129.4,38.8,129.4,39.5z M141.8,38.2c0.3,0.6,0.4,1.4,0.5,2.2
	c0,0.2,0,0.4-0.1,0.6c0,0.2-0.1,0.3-0.1,0.4c-0.1,0.1-0.1,0.2-0.2,0.2c-0.1,0.1-0.2,0-0.2,0.1c-0.1,0.1-0.1,0.1-0.2,0.1h-7.1v0.2
	c0.2,1.1,0.5,1.8,1,2.3c0.5,0.4,1.2,0.7,1.9,0.7h0.2c0.4,0,0.8-0.1,1.1-0.2c0.3-0.1,0.6-0.2,0.9-0.3l0.6-0.3
	c0.2-0.1,0.3-0.1,0.5-0.1c0.1,0,0.1,0,0.1,0c0.2,0,0.4,0.1,0.4,0.2l1,1.2c-0.3,0.3-0.6,0.6-1.1,0.9c-0.4,0.3-0.9,0.5-1.3,0.6
	c-0.5,0.1-0.9,0.2-1.3,0.3h-0.1c-0.4,0-0.8,0.1-1.2,0.1c-0.7,0-1.6-0.2-2.3-0.4c-0.6-0.2-1.2-0.6-1.9-1.2c-0.5-0.5-1-1.2-1.3-2
	c-0.4-1-0.5-1.8-0.5-2.7c0-0.7,0.2-1.4,0.4-2.2c0.5-1.4,1.6-2.5,2.9-3.1c0.7-0.3,1.6-0.5,2.4-0.5c0.7,0,1.4,0.2,2.1,0.4
	c0.6,0.2,1.1,0.6,1.6,1.1C141.2,37,141.5,37.5,141.8,38.2z M139.3,39.8v-0.1c0-0.3-0.1-0.6-0.1-0.9c-0.1-0.3-0.2-0.5-0.4-0.7
	c-0.2-0.3-0.5-0.5-0.7-0.6c-0.3-0.2-0.7-0.2-1-0.2h-0.1c-0.6,0-1.2,0.2-1.6,0.6c-0.4,0.4-0.7,1.1-0.8,1.7v0.2H139.3z M151.6,35.3
	l-0.4,2.5c0,0.1-0.1,0.2-0.1,0.2c-0.1,0.1-0.2,0.1-0.3,0.1c-0.2,0-0.3,0-0.4-0.1c-0.3-0.1-0.5-0.1-0.7-0.1c-1,0-1.8,0.5-2.4,1.6v0.1
	v7.2h-3.3V35.3h2c0.2,0,0.3,0,0.4,0.1c0.1,0,0.2,0.1,0.2,0.1c0.1,0.1,0.1,0.1,0.2,0.2c0,0.1,0.1,0.1,0.1,0.2c0,0.1,0.1,0.1,0.1,0.2
	l0.3,1.5l0.2-0.4c0.4-0.6,0.9-1.1,1.4-1.6c0.5-0.4,1.1-0.6,1.7-0.6C150.9,35,151.3,35.1,151.6,35.3z M161.9,37.8
	c0.2,0.6,0.3,1.2,0.2,2V47h-1.5c-0.3,0-0.5,0-0.7-0.1c-0.2-0.1-0.3-0.3-0.4-0.5l-0.3-0.9l-0.2,0.2c-0.3,0.2-0.6,0.4-0.9,0.6
	c-0.3,0.2-0.5,0.3-0.9,0.5c-0.3,0.1-0.6,0.2-0.9,0.3c-0.3,0.1-0.7,0.1-1.1,0.1c-0.5,0-1-0.1-1.4-0.2c-0.4-0.1-0.7-0.3-1.1-0.6
	c-0.3-0.3-0.5-0.6-0.6-1c-0.2-0.4-0.3-0.9-0.3-1.3c0.1-0.4,0.1-0.8,0.3-1.2c0.3-0.5,0.6-0.9,1.1-1.2c0.6-0.4,1.3-0.7,2.1-0.9
	c1.1-0.3,2-0.4,3-0.4c0.2,0,0.3,0,0.4,0h0.2v-0.7c0.1-0.6-0.1-1.1-0.5-1.6c-0.3-0.3-0.8-0.5-1.2-0.5c0,0-0.1,0-0.1,0
	c-0.4,0-0.7,0.1-1.1,0.2c-0.2,0.1-0.5,0.2-0.7,0.3c-0.2,0.1-0.5,0.2-0.6,0.3c-0.2,0.1-0.4,0.2-0.6,0.2c-0.2,0-0.4-0.1-0.5-0.2
	c-0.2-0.1-0.3-0.2-0.4-0.4l-0.6-1c0.6-0.6,1.4-1,2.2-1.3c0.9-0.3,1.8-0.5,2.8-0.5c0.1,0,0.2,0,0.3,0c0.6,0,1.1,0.1,1.7,0.3
	c0.5,0.2,1.1,0.5,1.4,0.9C161.4,36.7,161.7,37.2,161.9,37.8z M159,44v-1.9h-0.2c-0.6,0-1.2,0.1-1.8,0.2c-0.4,0-0.8,0.2-1.2,0.3
	c-0.3,0.1-0.5,0.3-0.6,0.5c-0.2,0.3-0.2,0.5-0.2,0.7c-0.1,0.3,0.1,0.7,0.4,1c0.4,0.2,0.6,0.3,1,0.3c0.1,0,0.1,0,0.2,0
	c0.5,0,0.9-0.1,1.3-0.3C158.3,44.6,158.7,44.3,159,44z M164.5,30h3.3v17h-3.3V30z M178.7,43.2c0,0.5-0.1,1.1-0.3,1.6
	s-0.5,0.9-0.9,1.2s-0.9,0.6-1.5,0.9c-0.6,0.2-1.3,0.3-2.1,0.3c-0.4,0-0.8-0.1-1.2-0.1c-0.4-0.1-0.8-0.2-1.2-0.3
	c-0.4-0.1-0.7-0.3-1-0.4s-0.5-0.3-0.7-0.5l0.7-1.2c0.1-0.1,0.2-0.2,0.3-0.3c0.1-0.1,0.3-0.1,0.5-0.1c0.2,0,0.3,0.1,0.5,0.1l0.5,0.3
	c0.2,0.1,0.5,0.2,0.7,0.3c0.3,0.1,0.6,0.2,1,0.2c0.2,0,0.5,0,0.7-0.1c0.2-0.1,0.3-0.1,0.5-0.3c0.1-0.1,0.2-0.2,0.3-0.3l0.1-0.1
	c0.1-0.1,0.1-0.3,0.1-0.5c0-0.3-0.1-0.5-0.3-0.7c-0.2-0.2-0.4-0.3-0.7-0.4c-0.3-0.1-0.6-0.2-0.9-0.3l-1-0.3c-0.3-0.1-0.6-0.3-1-0.4
	c-0.3-0.2-0.6-0.4-0.9-0.6s-0.5-0.6-0.6-0.9c-0.2-0.4-0.3-0.9-0.3-1.3c0-0.4,0.1-1,0.3-1.4c0.2-0.4,0.5-0.8,0.9-1.1
	c0.4-0.4,0.9-0.6,1.4-0.8c0.6-0.2,1.3-0.3,2-0.3c0.4,0,0.9,0.1,1.2,0.1s0.7,0.2,1.1,0.3c0.3,0.1,0.6,0.3,1,0.5
	c0.2,0.2,0.4,0.3,0.6,0.5l-0.7,1.2c-0.1,0.1-0.2,0.2-0.2,0.2h-0.1c-0.1,0.1-0.2,0.1-0.3,0.1c-0.2,0-0.3-0.1-0.4-0.1l-0.6-0.2
	c-0.2-0.1-0.4-0.2-0.7-0.2c-0.3-0.1-0.6-0.1-0.9-0.1c-0.1,0-0.1,0-0.2,0c-0.3,0-0.7,0.1-1,0.3c-0.3,0.2-0.4,0.5-0.4,0.9
	c0,0.2,0.1,0.5,0.3,0.7c0.3,0.2,0.5,0.3,0.7,0.4c0.3,0.2,0.6,0.3,0.9,0.3l1,0.3l1,0.4c0.4,0.2,0.6,0.3,0.9,0.5
	c0.3,0.3,0.5,0.5,0.6,0.9C178.5,42.4,178.7,42.7,178.7,43.2z M182.5,34.3c0.2,0,0.3-0.1,0.4-0.2c0.1-0.1,0.2-0.3,0.2-0.4
	c0-0.2-0.1-0.4-0.3-0.5c-0.2-0.1-0.3-0.1-0.4-0.1h-1.1v2.2h0.5v-0.8h0.2c0.1,0,0.2,0,0.2,0.1c0.1,0.1,0.2,0.1,0.2,0.2
	c0.1,0.1,0.1,0.2,0.1,0.3c0,0.1,0,0.2,0.1,0.3h0.6l0.1-0.1v-0.3c0-0.2-0.1-0.4-0.2-0.5C182.7,34.3,182.6,34.3,182.5,34.3z M182.3,34
	c0.1-0.1,0.2-0.1,0.2-0.3c0-0.1-0.1-0.2-0.2-0.3c-0.1-0.1-0.2-0.1-0.3-0.1h-0.2v0.6h0.2C182.1,34.1,182.2,34.1,182.3,34z
	 M182.5,34.3c0.2,0,0.3-0.1,0.4-0.2c0.1-0.1,0.2-0.3,0.2-0.4c0-0.2-0.1-0.4-0.3-0.5c-0.2-0.1-0.3-0.1-0.4-0.1h-1.1v2.2h0.5v-0.8h0.2
	c0.1,0,0.2,0,0.2,0.1c0.1,0.1,0.2,0.1,0.2,0.2c0.1,0.1,0.1,0.2,0.1,0.3c0,0.1,0,0.2,0.1,0.3h0.6l0.1-0.1v-0.3c0-0.2-0.1-0.4-0.2-0.5
	C182.7,34.3,182.6,34.3,182.5,34.3z M182.3,34c0.1-0.1,0.2-0.1,0.2-0.3c0-0.1-0.1-0.2-0.2-0.3c-0.1-0.1-0.2-0.1-0.3-0.1h-0.2v0.6
	h0.2C182.1,34.1,182.2,34.1,182.3,34z M182.5,34.3c0.2,0,0.3-0.1,0.4-0.2c0.1-0.1,0.2-0.3,0.2-0.4c0-0.2-0.1-0.4-0.3-0.5
	c-0.2-0.1-0.3-0.1-0.4-0.1h-1.1v2.2h0.5v-0.8h0.2c0.1,0,0.2,0,0.2,0.1c0.1,0.1,0.2,0.1,0.2,0.2c0.1,0.1,0.1,0.2,0.1,0.3
	c0,0.1,0,0.2,0.1,0.3h0.6l0.1-0.1v-0.3c0-0.2-0.1-0.4-0.2-0.5C182.7,34.3,182.6,34.3,182.5,34.3z M182.3,34c0.1-0.1,0.2-0.1,0.2-0.3
	c0-0.1-0.1-0.2-0.2-0.3c-0.1-0.1-0.2-0.1-0.3-0.1h-0.2v0.6h0.2C182.1,34.1,182.2,34.1,182.3,34z M182.5,34.3c0.2,0,0.3-0.1,0.4-0.2
	c0.1-0.1,0.2-0.3,0.2-0.4c0-0.2-0.1-0.4-0.3-0.5c-0.2-0.1-0.3-0.1-0.4-0.1h-1.1v2.2h0.5v-0.8h0.2c0.1,0,0.2,0,0.2,0.1
	c0.1,0.1,0.2,0.1,0.2,0.2c0.1,0.1,0.1,0.2,0.1,0.3c0,0.1,0,0.2,0.1,0.3h0.6l0.1-0.1v-0.3c0-0.2-0.1-0.4-0.2-0.5
	C182.7,34.3,182.6,34.3,182.5,34.3z M182.3,34c0.1-0.1,0.2-0.1,0.2-0.3c0-0.1-0.1-0.2-0.2-0.3c-0.1-0.1-0.2-0.1-0.3-0.1h-0.2v0.6
	h0.2C182.1,34.1,182.2,34.1,182.3,34z M182.5,34.3c0.2,0,0.3-0.1,0.4-0.2c0.1-0.1,0.2-0.3,0.2-0.4c0-0.2-0.1-0.4-0.3-0.5
	c-0.2-0.1-0.3-0.1-0.4-0.1h-1.1v2.2h0.5v-0.8h0.2c0.1,0,0.2,0,0.2,0.1c0.1,0.1,0.2,0.1,0.2,0.2c0.1,0.1,0.1,0.2,0.1,0.3
	c0,0.1,0,0.2,0.1,0.3h0.6l0.1-0.1v-0.3c0-0.2-0.1-0.4-0.2-0.5C182.7,34.3,182.6,34.3,182.5,34.3z M182.3,34c0.1-0.1,0.2-0.1,0.2-0.3
	c0-0.1-0.1-0.2-0.2-0.3c-0.1-0.1-0.2-0.1-0.3-0.1h-0.2v0.6h0.2C182.1,34.1,182.2,34.1,182.3,34z M182.5,34.3c0.2,0,0.3-0.1,0.4-0.2
	c0.1-0.1,0.2-0.3,0.2-0.4c0-0.2-0.1-0.4-0.3-0.5c-0.2-0.1-0.3-0.1-0.4-0.1h-1.1v2.2h0.5v-0.8h0.2c0.1,0,0.2,0,0.2,0.1
	c0.1,0.1,0.2,0.1,0.2,0.2c0.1,0.1,0.1,0.2,0.1,0.3c0,0.1,0,0.2,0.1,0.3h0.6l0.1-0.1v-0.3c0-0.2-0.1-0.4-0.2-0.5
	C182.7,34.3,182.6,34.3,182.5,34.3z M182.3,34c0.1-0.1,0.2-0.1,0.2-0.3c0-0.1-0.1-0.2-0.2-0.3c-0.1-0.1-0.2-0.1-0.3-0.1h-0.2v0.6
	h0.2C182.1,34.1,182.2,34.1,182.3,34z M182.5,34.3c0.2,0,0.3-0.1,0.4-0.2c0.1-0.1,0.2-0.3,0.2-0.4c0-0.2-0.1-0.4-0.3-0.5
	c-0.2-0.1-0.3-0.1-0.4-0.1h-1.1v2.2h0.5v-0.8h0.2c0.1,0,0.2,0,0.2,0.1c0.1,0.1,0.2,0.1,0.2,0.2c0.1,0.1,0.1,0.2,0.1,0.3
	c0,0.1,0,0.2,0.1,0.3h0.6l0.1-0.1v-0.3c0-0.2-0.1-0.4-0.2-0.5C182.7,34.3,182.6,34.3,182.5,34.3z M182.3,34c0.1-0.1,0.2-0.1,0.2-0.3
	c0-0.1-0.1-0.2-0.2-0.3c-0.1-0.1-0.2-0.1-0.3-0.1h-0.2v0.6h0.2C182.1,34.1,182.2,34.1,182.3,34z M182.5,34.3c0.2,0,0.3-0.1,0.4-0.2
	c0.1-0.1,0.2-0.3,0.2-0.4c0-0.2-0.1-0.4-0.3-0.5c-0.2-0.1-0.3-0.1-0.4-0.1h-1.1v2.2h0.5v-0.8h0.2c0.1,0,0.2,0,0.2,0.1
	c0.1,0.1,0.2,0.1,0.2,0.2c0.1,0.1,0.1,0.2,0.1,0.3c0,0.1,0,0.2,0.1,0.3h0.6l0.1-0.1v-0.3c0-0.2-0.1-0.4-0.2-0.5
	C182.7,34.3,182.6,34.3,182.5,34.3z M182.3,34c0.1-0.1,0.2-0.1,0.2-0.3c0-0.1-0.1-0.2-0.2-0.3c-0.1-0.1-0.2-0.1-0.3-0.1h-0.2v0.6
	h0.2C182.1,34.1,182.2,34.1,182.3,34z M182.5,34.3c0.2,0,0.3-0.1,0.4-0.2c0.1-0.1,0.2-0.3,0.2-0.4c0-0.2-0.1-0.4-0.3-0.5
	c-0.2-0.1-0.3-0.1-0.4-0.1h-1.1v2.2h0.5v-0.8h0.2c0.1,0,0.2,0,0.2,0.1c0.1,0.1,0.2,0.1,0.2,0.2c0.1,0.1,0.1,0.2,0.1,0.3
	c0,0.1,0,0.2,0.1,0.3h0.6l0.1-0.1v-0.3c0-0.2-0.1-0.4-0.2-0.5C182.7,34.3,182.6,34.3,182.5,34.3z M182.3,34c0.1-0.1,0.2-0.1,0.2-0.3
	c0-0.1-0.1-0.2-0.2-0.3c-0.1-0.1-0.2-0.1-0.3-0.1h-0.2v0.6h0.2C182.1,34.1,182.2,34.1,182.3,34z M182.5,34.3c0.2,0,0.3-0.1,0.4-0.2
	c0.1-0.1,0.2-0.3,0.2-0.4c0-0.2-0.1-0.4-0.3-0.5c-0.2-0.1-0.3-0.1-0.4-0.1h-1.1v2.2h0.5v-0.8h0.2c0.1,0,0.2,0,0.2,0.1
	c0.1,0.1,0.2,0.1,0.2,0.2c0.1,0.1,0.1,0.2,0.1,0.3c0,0.1,0,0.2,0.1,0.3h0.6l0.1-0.1v-0.3c0-0.2-0.1-0.4-0.2-0.5
	C182.7,34.3,182.6,34.3,182.5,34.3z M182.3,34c0.1-0.1,0.2-0.1,0.2-0.3c0-0.1-0.1-0.2-0.2-0.3c-0.1-0.1-0.2-0.1-0.3-0.1h-0.2v0.6
	h0.2C182.1,34.1,182.2,34.1,182.3,34z M182.5,34.3c0.2,0,0.3-0.1,0.4-0.2c0.1-0.1,0.2-0.3,0.2-0.4c0-0.2-0.1-0.4-0.3-0.5
	c-0.2-0.1-0.3-0.1-0.4-0.1h-1.1v2.2h0.5v-0.8h0.2c0.1,0,0.2,0,0.2,0.1c0.1,0.1,0.2,0.1,0.2,0.2c0.1,0.1,0.1,0.2,0.1,0.3
	c0,0.1,0,0.2,0.1,0.3h0.6l0.1-0.1v-0.3c0-0.2-0.1-0.4-0.2-0.5C182.7,34.3,182.6,34.3,182.5,34.3z M182.3,34c0.1-0.1,0.2-0.1,0.2-0.3
	c0-0.1-0.1-0.2-0.2-0.3c-0.1-0.1-0.2-0.1-0.3-0.1h-0.2v0.6h0.2C182.1,34.1,182.2,34.1,182.3,34z M182.5,34.3c0.2,0,0.3-0.1,0.4-0.2
	c0.1-0.1,0.2-0.3,0.2-0.4c0-0.2-0.1-0.4-0.3-0.5c-0.2-0.1-0.3-0.1-0.4-0.1h-1.1v2.2h0.5v-0.8h0.2c0.1,0,0.2,0,0.2,0.1
	c0.1,0.1,0.2,0.1,0.2,0.2c0.1,0.1,0.1,0.2,0.1,0.3c0,0.1,0,0.2,0.1,0.3h0.6l0.1-0.1v-0.3c0-0.2-0.1-0.4-0.2-0.5
	C182.7,34.3,182.6,34.3,182.5,34.3z M182.3,34c0.1-0.1,0.2-0.1,0.2-0.3c0-0.1-0.1-0.2-0.2-0.3c-0.1-0.1-0.2-0.1-0.3-0.1h-0.2v0.6
	h0.2C182.1,34.1,182.2,34.1,182.3,34z M182.5,34.3c0.2,0,0.3-0.1,0.4-0.2c0.1-0.1,0.2-0.3,0.2-0.4c0-0.2-0.1-0.4-0.3-0.5
	c-0.2-0.1-0.3-0.1-0.4-0.1h-1.1v2.2h0.5v-0.8h0.2c0.1,0,0.2,0,0.2,0.1c0.1,0.1,0.2,0.1,0.2,0.2c0.1,0.1,0.1,0.2,0.1,0.3
	c0,0.1,0,0.2,0.1,0.3h0.6l0.1-0.1v-0.3c0-0.2-0.1-0.4-0.2-0.5C182.7,34.3,182.6,34.3,182.5,34.3z M182.3,34c0.1-0.1,0.2-0.1,0.2-0.3
	c0-0.1-0.1-0.2-0.2-0.3c-0.1-0.1-0.2-0.1-0.3-0.1h-0.2v0.6h0.2C182.1,34.1,182.2,34.1,182.3,34z M182.5,34.3c0.2,0,0.3-0.1,0.4-0.2
	c0.1-0.1,0.2-0.3,0.2-0.4c0-0.2-0.1-0.4-0.3-0.5c-0.2-0.1-0.3-0.1-0.4-0.1h-1.1v2.2h0.5v-0.8h0.2c0.1,0,0.2,0,0.2,0.1
	c0.1,0.1,0.2,0.1,0.2,0.2c0.1,0.1,0.1,0.2,0.1,0.3c0,0.1,0,0.2,0.1,0.3h0.6l0.1-0.1v-0.3c0-0.2-0.1-0.4-0.2-0.5
	C182.7,34.3,182.6,34.3,182.5,34.3z M182.3,34c0.1-0.1,0.2-0.1,0.2-0.3c0-0.1-0.1-0.2-0.2-0.3c-0.1-0.1-0.2-0.1-0.3-0.1h-0.2v0.6
	h0.2C182.1,34.1,182.2,34.1,182.3,34z M182.5,34.3c0.2,0,0.3-0.1,0.4-0.2c0.1-0.1,0.2-0.3,0.2-0.4c0-0.2-0.1-0.4-0.3-0.5
	c-0.2-0.1-0.3-0.1-0.4-0.1h-1.1v2.2h0.5v-0.8h0.2c0.1,0,0.2,0,0.2,0.1c0.1,0.1,0.2,0.1,0.2,0.2c0.1,0.1,0.1,0.2,0.1,0.3
	c0,0.1,0,0.2,0.1,0.3h0.6l0.1-0.1v-0.3c0-0.2-0.1-0.4-0.2-0.5C182.7,34.3,182.6,34.3,182.5,34.3z M182.3,34c0.1-0.1,0.2-0.1,0.2-0.3
	c0-0.1-0.1-0.2-0.2-0.3c-0.1-0.1-0.2-0.1-0.3-0.1h-0.2v0.6h0.2C182.1,34.1,182.2,34.1,182.3,34z M182.5,34.3c0.2,0,0.3-0.1,0.4-0.2
	c0.1-0.1,0.2-0.3,0.2-0.4c0-0.2-0.1-0.4-0.3-0.5c-0.2-0.1-0.3-0.1-0.4-0.1h-1.1v2.2h0.5v-0.8h0.2c0.1,0,0.2,0,0.2,0.1
	c0.1,0.1,0.2,0.1,0.2,0.2c0.1,0.1,0.1,0.2,0.1,0.3c0,0.1,0,0.2,0.1,0.3h0.6l0.1-0.1v-0.3c0-0.2-0.1-0.4-0.2-0.5
	C182.7,34.3,182.6,34.3,182.5,34.3z M182.3,34c0.1-0.1,0.2-0.1,0.2-0.3c0-0.1-0.1-0.2-0.2-0.3c-0.1-0.1-0.2-0.1-0.3-0.1h-0.2v0.6
	h0.2C182.1,34.1,182.2,34.1,182.3,34z M182.5,34.3c0.2,0,0.3-0.1,0.4-0.2c0.1-0.1,0.2-0.3,0.2-0.4c0-0.2-0.1-0.4-0.3-0.5
	c-0.2-0.1-0.3-0.1-0.4-0.1h-1.1v2.2h0.5v-0.8h0.2c0.1,0,0.2,0,0.2,0.1c0.1,0.1,0.2,0.1,0.2,0.2c0.1,0.1,0.1,0.2,0.1,0.3
	c0,0.1,0,0.2,0.1,0.3h0.6l0.1-0.1v-0.3c0-0.2-0.1-0.4-0.2-0.5C182.7,34.3,182.6,34.3,182.5,34.3z M182.3,34c0.1-0.1,0.2-0.1,0.2-0.3
	c0-0.1-0.1-0.2-0.2-0.3c-0.1-0.1-0.2-0.1-0.3-0.1h-0.2v0.6h0.2C182.1,34.1,182.2,34.1,182.3,34z M182.5,34.3c0.2,0,0.3-0.1,0.4-0.2
	c0.1-0.1,0.2-0.3,0.2-0.4c0-0.2-0.1-0.4-0.3-0.5c-0.2-0.1-0.3-0.1-0.4-0.1h-1.1v2.2h0.5v-0.8h0.2c0.1,0,0.2,0,0.2,0.1
	c0.1,0.1,0.2,0.1,0.2,0.2c0.1,0.1,0.1,0.2,0.1,0.3c0,0.1,0,0.2,0.1,0.3h0.6l0.1-0.1v-0.3c0-0.2-0.1-0.4-0.2-0.5
	C182.7,34.3,182.6,34.3,182.5,34.3z M182.3,34c0.1-0.1,0.2-0.1,0.2-0.3c0-0.1-0.1-0.2-0.2-0.3c-0.1-0.1-0.2-0.1-0.3-0.1h-0.2v0.6
	h0.2C182.1,34.1,182.2,34.1,182.3,34z M182.5,34.3c0.2,0,0.3-0.1,0.4-0.2c0.1-0.1,0.2-0.3,0.2-0.4c0-0.2-0.1-0.4-0.3-0.5
	c-0.2-0.1-0.3-0.1-0.4-0.1h-1.1v2.2h0.5v-0.8h0.2c0.1,0,0.2,0,0.2,0.1c0.1,0.1,0.2,0.1,0.2,0.2c0.1,0.1,0.1,0.2,0.1,0.3
	c0,0.1,0,0.2,0.1,0.3h0.6l0.1-0.1v-0.3c0-0.2-0.1-0.4-0.2-0.5C182.7,34.3,182.6,34.3,182.5,34.3z M182.3,34c0.1-0.1,0.2-0.1,0.2-0.3
	c0-0.1-0.1-0.2-0.2-0.3c-0.1-0.1-0.2-0.1-0.3-0.1h-0.2v0.6h0.2C182.1,34.1,182.2,34.1,182.3,34z M182.5,34.3c0.2,0,0.3-0.1,0.4-0.2
	c0.1-0.1,0.2-0.3,0.2-0.4c0-0.2-0.1-0.4-0.3-0.5c-0.2-0.1-0.3-0.1-0.4-0.1h-1.1v2.2h0.5v-0.8h0.2c0.1,0,0.2,0,0.2,0.1
	c0.1,0.1,0.2,0.1,0.2,0.2c0.1,0.1,0.1,0.2,0.1,0.3c0,0.1,0,0.2,0.1,0.3h0.6l0.1-0.1v-0.3c0-0.2-0.1-0.4-0.2-0.5
	C182.7,34.3,182.6,34.3,182.5,34.3z M182.3,34c0.1-0.1,0.2-0.1,0.2-0.3c0-0.1-0.1-0.2-0.2-0.3c-0.1-0.1-0.2-0.1-0.3-0.1h-0.2v0.6
	h0.2C182.1,34.1,182.2,34.1,182.3,34z M182.5,34.3c0.2,0,0.3-0.1,0.4-0.2c0.1-0.1,0.2-0.3,0.2-0.4c0-0.2-0.1-0.4-0.3-0.5
	c-0.2-0.1-0.3-0.1-0.4-0.1h-1.1v2.2h0.5v-0.8h0.2c0.1,0,0.2,0,0.2,0.1c0.1,0.1,0.2,0.1,0.2,0.2c0.1,0.1,0.1,0.2,0.1,0.3
	c0,0.1,0,0.2,0.1,0.3h0.6l0.1-0.1v-0.3c0-0.2-0.1-0.4-0.2-0.5C182.7,34.3,182.6,34.3,182.5,34.3z M182.3,34c0.1-0.1,0.2-0.1,0.2-0.3
	c0-0.1-0.1-0.2-0.2-0.3c-0.1-0.1-0.2-0.1-0.3-0.1h-0.2v0.6h0.2C182.1,34.1,182.2,34.1,182.3,34z M182.5,34.3c0.2,0,0.3-0.1,0.4-0.2
	c0.1-0.1,0.2-0.3,0.2-0.4c0-0.2-0.1-0.4-0.3-0.5c-0.2-0.1-0.3-0.1-0.4-0.1h-1.1v2.2h0.5v-0.8h0.2c0.1,0,0.2,0,0.2,0.1
	c0.1,0.1,0.2,0.1,0.2,0.2c0.1,0.1,0.1,0.2,0.1,0.3c0,0.1,0,0.2,0.1,0.3h0.6l0.1-0.1v-0.3c0-0.2-0.1-0.4-0.2-0.5
	C182.7,34.3,182.6,34.3,182.5,34.3z M182.3,34c0.1-0.1,0.2-0.1,0.2-0.3c0-0.1-0.1-0.2-0.2-0.3c-0.1-0.1-0.2-0.1-0.3-0.1h-0.2v0.6
	h0.2C182.1,34.1,182.2,34.1,182.3,34z M182.5,34.3c0.2,0,0.3-0.1,0.4-0.2c0.1-0.1,0.2-0.3,0.2-0.4c0-0.2-0.1-0.4-0.3-0.5
	c-0.2-0.1-0.3-0.1-0.4-0.1h-1.1v2.2h0.5v-0.8h0.2c0.1,0,0.2,0,0.2,0.1c0.1,0.1,0.2,0.1,0.2,0.2c0.1,0.1,0.1,0.2,0.1,0.3
	c0,0.1,0,0.2,0.1,0.3h0.6l0.1-0.1v-0.3c0-0.2-0.1-0.4-0.2-0.5C182.7,34.3,182.6,34.3,182.5,34.3z M182.3,34c0.1-0.1,0.2-0.1,0.2-0.3
	c0-0.1-0.1-0.2-0.2-0.3c-0.1-0.1-0.2-0.1-0.3-0.1h-0.2v0.6h0.2C182.1,34.1,182.2,34.1,182.3,34z M182.5,34.3c0.2,0,0.3-0.1,0.4-0.2
	c0.1-0.1,0.2-0.3,0.2-0.4c0-0.2-0.1-0.4-0.3-0.5c-0.2-0.1-0.3-0.1-0.4-0.1h-1.1v2.2h0.5v-0.8h0.2c0.1,0,0.2,0,0.2,0.1
	c0.1,0.1,0.2,0.1,0.2,0.2c0.1,0.1,0.1,0.2,0.1,0.3c0,0.1,0,0.2,0.1,0.3h0.6l0.1-0.1v-0.3c0-0.2-0.1-0.4-0.2-0.5
	C182.7,34.3,182.6,34.3,182.5,34.3z M182.3,34c0.1-0.1,0.2-0.1,0.2-0.3c0-0.1-0.1-0.2-0.2-0.3c-0.1-0.1-0.2-0.1-0.3-0.1h-0.2v0.6
	h0.2C182.1,34.1,182.2,34.1,182.3,34z M182.5,34.3c0.2,0,0.3-0.1,0.4-0.2c0.1-0.1,0.2-0.3,0.2-0.4c0-0.2-0.1-0.4-0.3-0.5
	c-0.2-0.1-0.3-0.1-0.4-0.1h-1.1v2.2h0.5v-0.8h0.2c0.1,0,0.2,0,0.2,0.1c0.1,0.1,0.2,0.1,0.2,0.2c0.1,0.1,0.1,0.2,0.1,0.3
	c0,0.1,0,0.2,0.1,0.3h0.6l0.1-0.1v-0.3c0-0.2-0.1-0.4-0.2-0.5C182.7,34.3,182.6,34.3,182.5,34.3z M182.3,34c0.1-0.1,0.2-0.1,0.2-0.3
	c0-0.1-0.1-0.2-0.2-0.3c-0.1-0.1-0.2-0.1-0.3-0.1h-0.2v0.6h0.2C182.1,34.1,182.2,34.1,182.3,34z M182.5,34.3c0.2,0,0.3-0.1,0.4-0.2
	c0.1-0.1,0.2-0.3,0.2-0.4c0-0.2-0.1-0.4-0.3-0.5c-0.2-0.1-0.3-0.1-0.4-0.1h-1.1v2.2h0.5v-0.8h0.2c0.1,0,0.2,0,0.2,0.1
	c0.1,0.1,0.2,0.1,0.2,0.2c0.1,0.1,0.1,0.2,0.1,0.3c0,0.1,0,0.2,0.1,0.3h0.6l0.1-0.1v-0.3c0-0.2-0.1-0.4-0.2-0.5
	C182.7,34.3,182.6,34.3,182.5,34.3z M182.3,34c0.1-0.1,0.2-0.1,0.2-0.3c0-0.1-0.1-0.2-0.2-0.3c-0.1-0.1-0.2-0.1-0.3-0.1h-0.2v0.6
	h0.2C182.1,34.1,182.2,34.1,182.3,34z M182.5,34.3c0.2,0,0.3-0.1,0.4-0.2c0.1-0.1,0.2-0.3,0.2-0.4c0-0.2-0.1-0.4-0.3-0.5
	c-0.2-0.1-0.3-0.1-0.4-0.1h-1.1v2.2h0.5v-0.8h0.2c0.1,0,0.2,0,0.2,0.1c0.1,0.1,0.2,0.1,0.2,0.2c0.1,0.1,0.1,0.2,0.1,0.3
	c0,0.1,0,0.2,0.1,0.3h0.6l0.1-0.1v-0.3c0-0.2-0.1-0.4-0.2-0.5C182.7,34.3,182.6,34.3,182.5,34.3z M182.3,34c0.1-0.1,0.2-0.1,0.2-0.3
	c0-0.1-0.1-0.2-0.2-0.3c-0.1-0.1-0.2-0.1-0.3-0.1h-0.2v0.6h0.2C182.1,34.1,182.2,34.1,182.3,34z M182.5,34.3c0.2,0,0.3-0.1,0.4-0.2
	c0.1-0.1,0.2-0.3,0.2-0.4c0-0.2-0.1-0.4-0.3-0.5c-0.2-0.1-0.3-0.1-0.4-0.1h-1.1v2.2h0.5v-0.8h0.2c0.1,0,0.2,0,0.2,0.1
	c0.1,0.1,0.2,0.1,0.2,0.2c0.1,0.1,0.1,0.2,0.1,0.3c0,0.1,0,0.2,0.1,0.3h0.6l0.1-0.1v-0.3c0-0.2-0.1-0.4-0.2-0.5
	C182.7,34.3,182.6,34.3,182.5,34.3z M182.3,34c0.1-0.1,0.2-0.1,0.2-0.3c0-0.1-0.1-0.2-0.2-0.3c-0.1-0.1-0.2-0.1-0.3-0.1h-0.2v0.6
	h0.2C182.1,34.1,182.2,34.1,182.3,34z M182.5,34.3c0.2,0,0.3-0.1,0.4-0.2c0.1-0.1,0.2-0.3,0.2-0.4c0-0.2-0.1-0.4-0.3-0.5
	c-0.2-0.1-0.3-0.1-0.4-0.1h-1.1v2.2h0.5v-0.8h0.2c0.1,0,0.2,0,0.2,0.1c0.1,0.1,0.2,0.1,0.2,0.2c0.1,0.1,0.1,0.2,0.1,0.3
	c0,0.1,0,0.2,0.1,0.3h0.6l0.1-0.1v-0.3c0-0.2-0.1-0.4-0.2-0.5C182.7,34.3,182.6,34.3,182.5,34.3z M182.3,34c0.1-0.1,0.2-0.1,0.2-0.3
	c0-0.1-0.1-0.2-0.2-0.3c-0.1-0.1-0.2-0.1-0.3-0.1h-0.2v0.6h0.2C182.1,34.1,182.2,34.1,182.3,34z M182.5,34.3c0.2,0,0.3-0.1,0.4-0.2
	c0.1-0.1,0.2-0.3,0.2-0.4c0-0.2-0.1-0.4-0.3-0.5c-0.2-0.1-0.3-0.1-0.4-0.1h-1.1v2.2h0.5v-0.8h0.2c0.1,0,0.2,0,0.2,0.1
	c0.1,0.1,0.2,0.1,0.2,0.2c0.1,0.1,0.1,0.2,0.1,0.3c0,0.1,0,0.2,0.1,0.3h0.6l0.1-0.1v-0.3c0-0.2-0.1-0.4-0.2-0.5
	C182.7,34.3,182.6,34.3,182.5,34.3z M182.3,34c0.1-0.1,0.2-0.1,0.2-0.3c0-0.1-0.1-0.2-0.2-0.3c-0.1-0.1-0.2-0.1-0.3-0.1h-0.2v0.6
	h0.2C182.1,34.1,182.2,34.1,182.3,34z M183.5,32.8c0.4,0.4,0.6,0.9,0.5,1.4c0,1.1-0.9,2-2,2c-1.1,0-2-0.9-2-2c0-0.5,0.2-1.1,0.6-1.4
	c0.4-0.4,0.9-0.5,1.4-0.5C182.6,32.2,183.1,32.4,183.5,32.8z M183.3,35.4c0.6-0.6,0.6-1.7,0-2.4c-0.6-0.6-1.7-0.6-2.3,0
	c-0.3,0.3-0.5,0.7-0.5,1.2s0.2,0.9,0.5,1.2C181.6,36,182.6,36,183.3,35.4z M183,33.8c0,0.2-0.1,0.3-0.2,0.4
	c-0.1,0.1-0.2,0.2-0.4,0.2c0.2,0,0.2,0.1,0.3,0.1c0.2,0.1,0.2,0.3,0.2,0.5v0.3l-0.1,0.1h-0.6c-0.1-0.2-0.1-0.2-0.1-0.3
	c0-0.1,0-0.2-0.1-0.3c0-0.1-0.1-0.1-0.2-0.2c0-0.1-0.1-0.1-0.2-0.1h-0.2v0.8h-0.5v-2.2h1.1c0.1,0,0.3,0.1,0.4,0.1
	C182.9,33.3,183,33.5,183,33.8z M182.3,34c0.1-0.1,0.2-0.1,0.2-0.3c0-0.1-0.1-0.2-0.2-0.3c-0.1-0.1-0.2-0.1-0.3-0.1h-0.2v0.6h0.2
	C182.1,34.1,182.2,34.1,182.3,34z M182.5,34.3c0.2,0,0.3-0.1,0.4-0.2c0.1-0.1,0.2-0.3,0.2-0.4c0-0.2-0.1-0.4-0.3-0.5
	c-0.2-0.1-0.3-0.1-0.4-0.1h-1.1v2.2h0.5v-0.8h0.2c0.1,0,0.2,0,0.2,0.1c0.1,0.1,0.2,0.1,0.2,0.2c0.1,0.1,0.1,0.2,0.1,0.3
	c0,0.1,0,0.2,0.1,0.3h0.6l0.1-0.1v-0.3c0-0.2-0.1-0.4-0.2-0.5C182.7,34.3,182.6,34.3,182.5,34.3z M182.3,34c0.1-0.1,0.2-0.1,0.2-0.3
	c0-0.1-0.1-0.2-0.2-0.3c-0.1-0.1-0.2-0.1-0.3-0.1h-0.2v0.6h0.2C182.1,34.1,182.2,34.1,182.3,34z M182.5,34.3c0.2,0,0.3-0.1,0.4-0.2
	c0.1-0.1,0.2-0.3,0.2-0.4c0-0.2-0.1-0.4-0.3-0.5c-0.2-0.1-0.3-0.1-0.4-0.1h-1.1v2.2h0.5v-0.8h0.2c0.1,0,0.2,0,0.2,0.1
	c0.1,0.1,0.2,0.1,0.2,0.2c0.1,0.1,0.1,0.2,0.1,0.3c0,0.1,0,0.2,0.1,0.3h0.6l0.1-0.1v-0.3c0-0.2-0.1-0.4-0.2-0.5
	C182.7,34.3,182.6,34.3,182.5,34.3z M182.3,34c0.1-0.1,0.2-0.1,0.2-0.3c0-0.1-0.1-0.2-0.2-0.3c-0.1-0.1-0.2-0.1-0.3-0.1h-0.2v0.6
	h0.2C182.1,34.1,182.2,34.1,182.3,34z M182.5,34.3c0.2,0,0.3-0.1,0.4-0.2c0.1-0.1,0.2-0.3,0.2-0.4c0-0.2-0.1-0.4-0.3-0.5
	c-0.2-0.1-0.3-0.1-0.4-0.1h-1.1v2.2h0.5v-0.8h0.2c0.1,0,0.2,0,0.2,0.1c0.1,0.1,0.2,0.1,0.2,0.2c0.1,0.1,0.1,0.2,0.1,0.3
	c0,0.1,0,0.2,0.1,0.3h0.6l0.1-0.1v-0.3c0-0.2-0.1-0.4-0.2-0.5C182.7,34.3,182.6,34.3,182.5,34.3z M182.3,34c0.1-0.1,0.2-0.1,0.2-0.3
	c0-0.1-0.1-0.2-0.2-0.3c-0.1-0.1-0.2-0.1-0.3-0.1h-0.2v0.6h0.2C182.1,34.1,182.2,34.1,182.3,34z M182.5,34.3c0.2,0,0.3-0.1,0.4-0.2
	c0.1-0.1,0.2-0.3,0.2-0.4c0-0.2-0.1-0.4-0.3-0.5c-0.2-0.1-0.3-0.1-0.4-0.1h-1.1v2.2h0.5v-0.8h0.2c0.1,0,0.2,0,0.2,0.1
	c0.1,0.1,0.2,0.1,0.2,0.2c0.1,0.1,0.1,0.2,0.1,0.3c0,0.1,0,0.2,0.1,0.3h0.6l0.1-0.1v-0.3c0-0.2-0.1-0.4-0.2-0.5
	C182.7,34.3,182.6,34.3,182.5,34.3z M182.3,34c0.1-0.1,0.2-0.1,0.2-0.3c0-0.1-0.1-0.2-0.2-0.3c-0.1-0.1-0.2-0.1-0.3-0.1h-0.2v0.6
	h0.2C182.1,34.1,182.2,34.1,182.3,34z M182.5,34.3c0.2,0,0.3-0.1,0.4-0.2c0.1-0.1,0.2-0.3,0.2-0.4c0-0.2-0.1-0.4-0.3-0.5
	c-0.2-0.1-0.3-0.1-0.4-0.1h-1.1v2.2h0.5v-0.8h0.2c0.1,0,0.2,0,0.2,0.1c0.1,0.1,0.2,0.1,0.2,0.2c0.1,0.1,0.1,0.2,0.1,0.3
	c0,0.1,0,0.2,0.1,0.3h0.6l0.1-0.1v-0.3c0-0.2-0.1-0.4-0.2-0.5C182.7,34.3,182.6,34.3,182.5,34.3z M182.3,34c0.1-0.1,0.2-0.1,0.2-0.3
	c0-0.1-0.1-0.2-0.2-0.3c-0.1-0.1-0.2-0.1-0.3-0.1h-0.2v0.6h0.2C182.1,34.1,182.2,34.1,182.3,34z M182.5,34.3c0.2,0,0.3-0.1,0.4-0.2
	c0.1-0.1,0.2-0.3,0.2-0.4c0-0.2-0.1-0.4-0.3-0.5c-0.2-0.1-0.3-0.1-0.4-0.1h-1.1v2.2h0.5v-0.8h0.2c0.1,0,0.2,0,0.2,0.1
	c0.1,0.1,0.2,0.1,0.2,0.2c0.1,0.1,0.1,0.2,0.1,0.3c0,0.1,0,0.2,0.1,0.3h0.6l0.1-0.1v-0.3c0-0.2-0.1-0.4-0.2-0.5
	C182.7,34.3,182.6,34.3,182.5,34.3z M182.3,34c0.1-0.1,0.2-0.1,0.2-0.3c0-0.1-0.1-0.2-0.2-0.3c-0.1-0.1-0.2-0.1-0.3-0.1h-0.2v0.6
	h0.2C182.1,34.1,182.2,34.1,182.3,34z M182.5,34.3c0.2,0,0.3-0.1,0.4-0.2c0.1-0.1,0.2-0.3,0.2-0.4c0-0.2-0.1-0.4-0.3-0.5
	c-0.2-0.1-0.3-0.1-0.4-0.1h-1.1v2.2h0.5v-0.8h0.2c0.1,0,0.2,0,0.2,0.1c0.1,0.1,0.2,0.1,0.2,0.2c0.1,0.1,0.1,0.2,0.1,0.3
	c0,0.1,0,0.2,0.1,0.3h0.6l0.1-0.1v-0.3c0-0.2-0.1-0.4-0.2-0.5C182.7,34.3,182.6,34.3,182.5,34.3z M182.3,34c0.1-0.1,0.2-0.1,0.2-0.3
	c0-0.1-0.1-0.2-0.2-0.3c-0.1-0.1-0.2-0.1-0.3-0.1h-0.2v0.6h0.2C182.1,34.1,182.2,34.1,182.3,34z M182.5,34.3c0.2,0,0.3-0.1,0.4-0.2
	c0.1-0.1,0.2-0.3,0.2-0.4c0-0.2-0.1-0.4-0.3-0.5c-0.2-0.1-0.3-0.1-0.4-0.1h-1.1v2.2h0.5v-0.8h0.2c0.1,0,0.2,0,0.2,0.1
	c0.1,0.1,0.2,0.1,0.2,0.2c0.1,0.1,0.1,0.2,0.1,0.3c0,0.1,0,0.2,0.1,0.3h0.6l0.1-0.1v-0.3c0-0.2-0.1-0.4-0.2-0.5
	C182.7,34.3,182.6,34.3,182.5,34.3z M182.3,34c0.1-0.1,0.2-0.1,0.2-0.3c0-0.1-0.1-0.2-0.2-0.3c-0.1-0.1-0.2-0.1-0.3-0.1h-0.2v0.6
	h0.2C182.1,34.1,182.2,34.1,182.3,34z M182.5,34.3c0.2,0,0.3-0.1,0.4-0.2c0.1-0.1,0.2-0.3,0.2-0.4c0-0.2-0.1-0.4-0.3-0.5
	c-0.2-0.1-0.3-0.1-0.4-0.1h-1.1v2.2h0.5v-0.8h0.2c0.1,0,0.2,0,0.2,0.1c0.1,0.1,0.2,0.1,0.2,0.2c0.1,0.1,0.1,0.2,0.1,0.3
	c0,0.1,0,0.2,0.1,0.3h0.6l0.1-0.1v-0.3c0-0.2-0.1-0.4-0.2-0.5C182.7,34.3,182.6,34.3,182.5,34.3z M182.3,34c0.1-0.1,0.2-0.1,0.2-0.3
	c0-0.1-0.1-0.2-0.2-0.3c-0.1-0.1-0.2-0.1-0.3-0.1h-0.2v0.6h0.2C182.1,34.1,182.2,34.1,182.3,34z M182.5,34.3c0.2,0,0.3-0.1,0.4-0.2
	c0.1-0.1,0.2-0.3,0.2-0.4c0-0.2-0.1-0.4-0.3-0.5c-0.2-0.1-0.3-0.1-0.4-0.1h-1.1v2.2h0.5v-0.8h0.2c0.1,0,0.2,0,0.2,0.1
	c0.1,0.1,0.2,0.1,0.2,0.2c0.1,0.1,0.1,0.2,0.1,0.3c0,0.1,0,0.2,0.1,0.3h0.6l0.1-0.1v-0.3c0-0.2-0.1-0.4-0.2-0.5
	C182.7,34.3,182.6,34.3,182.5,34.3z M182.3,34c0.1-0.1,0.2-0.1,0.2-0.3c0-0.1-0.1-0.2-0.2-0.3c-0.1-0.1-0.2-0.1-0.3-0.1h-0.2v0.6
	h0.2C182.1,34.1,182.2,34.1,182.3,34z M182.5,34.3c0.2,0,0.3-0.1,0.4-0.2c0.1-0.1,0.2-0.3,0.2-0.4c0-0.2-0.1-0.4-0.3-0.5
	c-0.2-0.1-0.3-0.1-0.4-0.1h-1.1v2.2h0.5v-0.8h0.2c0.1,0,0.2,0,0.2,0.1c0.1,0.1,0.2,0.1,0.2,0.2c0.1,0.1,0.1,0.2,0.1,0.3
	c0,0.1,0,0.2,0.1,0.3h0.6l0.1-0.1v-0.3c0-0.2-0.1-0.4-0.2-0.5C182.7,34.3,182.6,34.3,182.5,34.3z M182.3,34c0.1-0.1,0.2-0.1,0.2-0.3
	c0-0.1-0.1-0.2-0.2-0.3c-0.1-0.1-0.2-0.1-0.3-0.1h-0.2v0.6h0.2C182.1,34.1,182.2,34.1,182.3,34z M182.5,34.3c0.2,0,0.3-0.1,0.4-0.2
	c0.1-0.1,0.2-0.3,0.2-0.4c0-0.2-0.1-0.4-0.3-0.5c-0.2-0.1-0.3-0.1-0.4-0.1h-1.1v2.2h0.5v-0.8h0.2c0.1,0,0.2,0,0.2,0.1
	c0.1,0.1,0.2,0.1,0.2,0.2c0.1,0.1,0.1,0.2,0.1,0.3c0,0.1,0,0.2,0.1,0.3h0.6l0.1-0.1v-0.3c0-0.2-0.1-0.4-0.2-0.5
	C182.7,34.3,182.6,34.3,182.5,34.3z M182.3,34c0.1-0.1,0.2-0.1,0.2-0.3c0-0.1-0.1-0.2-0.2-0.3c-0.1-0.1-0.2-0.1-0.3-0.1h-0.2v0.6
	h0.2C182.1,34.1,182.2,34.1,182.3,34z M182.5,34.3c0.2,0,0.3-0.1,0.4-0.2c0.1-0.1,0.2-0.3,0.2-0.4c0-0.2-0.1-0.4-0.3-0.5
	c-0.2-0.1-0.3-0.1-0.4-0.1h-1.1v2.2h0.5v-0.8h0.2c0.1,0,0.2,0,0.2,0.1c0.1,0.1,0.2,0.1,0.2,0.2c0.1,0.1,0.1,0.2,0.1,0.3
	c0,0.1,0,0.2,0.1,0.3h0.6l0.1-0.1v-0.3c0-0.2-0.1-0.4-0.2-0.5C182.7,34.3,182.6,34.3,182.5,34.3z M182.3,34c0.1-0.1,0.2-0.1,0.2-0.3
	c0-0.1-0.1-0.2-0.2-0.3c-0.1-0.1-0.2-0.1-0.3-0.1h-0.2v0.6h0.2C182.1,34.1,182.2,34.1,182.3,34z M182.5,34.3c0.2,0,0.3-0.1,0.4-0.2
	c0.1-0.1,0.2-0.3,0.2-0.4c0-0.2-0.1-0.4-0.3-0.5c-0.2-0.1-0.3-0.1-0.4-0.1h-1.1v2.2h0.5v-0.8h0.2c0.1,0,0.2,0,0.2,0.1
	c0.1,0.1,0.2,0.1,0.2,0.2c0.1,0.1,0.1,0.2,0.1,0.3c0,0.1,0,0.2,0.1,0.3h0.6l0.1-0.1v-0.3c0-0.2-0.1-0.4-0.2-0.5
	C182.7,34.3,182.6,34.3,182.5,34.3z M182.3,34c0.1-0.1,0.2-0.1,0.2-0.3c0-0.1-0.1-0.2-0.2-0.3c-0.1-0.1-0.2-0.1-0.3-0.1h-0.2v0.6
	h0.2C182.1,34.1,182.2,34.1,182.3,34z M182.5,34.3c0.2,0,0.3-0.1,0.4-0.2c0.1-0.1,0.2-0.3,0.2-0.4c0-0.2-0.1-0.4-0.3-0.5
	c-0.2-0.1-0.3-0.1-0.4-0.1h-1.1v2.2h0.5v-0.8h0.2c0.1,0,0.2,0,0.2,0.1c0.1,0.1,0.2,0.1,0.2,0.2c0.1,0.1,0.1,0.2,0.1,0.3
	c0,0.1,0,0.2,0.1,0.3h0.6l0.1-0.1v-0.3c0-0.2-0.1-0.4-0.2-0.5C182.7,34.3,182.6,34.3,182.5,34.3z M182.3,34c0.1-0.1,0.2-0.1,0.2-0.3
	c0-0.1-0.1-0.2-0.2-0.3c-0.1-0.1-0.2-0.1-0.3-0.1h-0.2v0.6h0.2C182.1,34.1,182.2,34.1,182.3,34z M182.5,34.3c0.2,0,0.3-0.1,0.4-0.2
	c0.1-0.1,0.2-0.3,0.2-0.4c0-0.2-0.1-0.4-0.3-0.5c-0.2-0.1-0.3-0.1-0.4-0.1h-1.1v2.2h0.5v-0.8h0.2c0.1,0,0.2,0,0.2,0.1
	c0.1,0.1,0.2,0.1,0.2,0.2c0.1,0.1,0.1,0.2,0.1,0.3c0,0.1,0,0.2,0.1,0.3h0.6l0.1-0.1v-0.3c0-0.2-0.1-0.4-0.2-0.5
	C182.7,34.3,182.6,34.3,182.5,34.3z M182.3,34c0.1-0.1,0.2-0.1,0.2-0.3c0-0.1-0.1-0.2-0.2-0.3c-0.1-0.1-0.2-0.1-0.3-0.1h-0.2v0.6
	h0.2C182.1,34.1,182.2,34.1,182.3,34z M182.5,34.3c0.2,0,0.3-0.1,0.4-0.2c0.1-0.1,0.2-0.3,0.2-0.4c0-0.2-0.1-0.4-0.3-0.5
	c-0.2-0.1-0.3-0.1-0.4-0.1h-1.1v2.2h0.5v-0.8h0.2c0.1,0,0.2,0,0.2,0.1c0.1,0.1,0.2,0.1,0.2,0.2c0.1,0.1,0.1,0.2,0.1,0.3
	c0,0.1,0,0.2,0.1,0.3h0.6l0.1-0.1v-0.3c0-0.2-0.1-0.4-0.2-0.5C182.7,34.3,182.6,34.3,182.5,34.3z M182.3,34c0.1-0.1,0.2-0.1,0.2-0.3
	c0-0.1-0.1-0.2-0.2-0.3c-0.1-0.1-0.2-0.1-0.3-0.1h-0.2v0.6h0.2C182.1,34.1,182.2,34.1,182.3,34z M182.5,34.3c0.2,0,0.3-0.1,0.4-0.2
	c0.1-0.1,0.2-0.3,0.2-0.4c0-0.2-0.1-0.4-0.3-0.5c-0.2-0.1-0.3-0.1-0.4-0.1h-1.1v2.2h0.5v-0.8h0.2c0.1,0,0.2,0,0.2,0.1
	c0.1,0.1,0.2,0.1,0.2,0.2c0.1,0.1,0.1,0.2,0.1,0.3c0,0.1,0,0.2,0.1,0.3h0.6l0.1-0.1v-0.3c0-0.2-0.1-0.4-0.2-0.5
	C182.7,34.3,182.6,34.3,182.5,34.3z M182.3,34c0.1-0.1,0.2-0.1,0.2-0.3c0-0.1-0.1-0.2-0.2-0.3c-0.1-0.1-0.2-0.1-0.3-0.1h-0.2v0.6
	h0.2C182.1,34.1,182.2,34.1,182.3,34z M182.5,34.3c0.2,0,0.3-0.1,0.4-0.2c0.1-0.1,0.2-0.3,0.2-0.4c0-0.2-0.1-0.4-0.3-0.5
	c-0.2-0.1-0.3-0.1-0.4-0.1h-1.1v2.2h0.5v-0.8h0.2c0.1,0,0.2,0,0.2,0.1c0.1,0.1,0.2,0.1,0.2,0.2c0.1,0.1,0.1,0.2,0.1,0.3
	c0,0.1,0,0.2,0.1,0.3h0.6l0.1-0.1v-0.3c0-0.2-0.1-0.4-0.2-0.5C182.7,34.3,182.6,34.3,182.5,34.3z M182.3,34c0.1-0.1,0.2-0.1,0.2-0.3
	c0-0.1-0.1-0.2-0.2-0.3c-0.1-0.1-0.2-0.1-0.3-0.1h-0.2v0.6h0.2C182.1,34.1,182.2,34.1,182.3,34z M182.5,34.3c0.2,0,0.3-0.1,0.4-0.2
	c0.1-0.1,0.2-0.3,0.2-0.4c0-0.2-0.1-0.4-0.3-0.5c-0.2-0.1-0.3-0.1-0.4-0.1h-1.1v2.2h0.5v-0.8h0.2c0.1,0,0.2,0,0.2,0.1
	c0.1,0.1,0.2,0.1,0.2,0.2c0.1,0.1,0.1,0.2,0.1,0.3c0,0.1,0,0.2,0.1,0.3h0.6l0.1-0.1v-0.3c0-0.2-0.1-0.4-0.2-0.5
	C182.7,34.3,182.6,34.3,182.5,34.3z M182.3,34c0.1-0.1,0.2-0.1,0.2-0.3c0-0.1-0.1-0.2-0.2-0.3c-0.1-0.1-0.2-0.1-0.3-0.1h-0.2v0.6
	h0.2C182.1,34.1,182.2,34.1,182.3,34z M182.5,34.3c0.2,0,0.3-0.1,0.4-0.2c0.1-0.1,0.2-0.3,0.2-0.4c0-0.2-0.1-0.4-0.3-0.5
	c-0.2-0.1-0.3-0.1-0.4-0.1h-1.1v2.2h0.5v-0.8h0.2c0.1,0,0.2,0,0.2,0.1c0.1,0.1,0.2,0.1,0.2,0.2c0.1,0.1,0.1,0.2,0.1,0.3
	c0,0.1,0,0.2,0.1,0.3h0.6l0.1-0.1v-0.3c0-0.2-0.1-0.4-0.2-0.5C182.7,34.3,182.6,34.3,182.5,34.3z M182.3,34c0.1-0.1,0.2-0.1,0.2-0.3
	c0-0.1-0.1-0.2-0.2-0.3c-0.1-0.1-0.2-0.1-0.3-0.1h-0.2v0.6h0.2C182.1,34.1,182.2,34.1,182.3,34z M182.5,34.3c0.2,0,0.3-0.1,0.4-0.2
	c0.1-0.1,0.2-0.3,0.2-0.4c0-0.2-0.1-0.4-0.3-0.5c-0.2-0.1-0.3-0.1-0.4-0.1h-1.1v2.2h0.5v-0.8h0.2c0.1,0,0.2,0,0.2,0.1
	c0.1,0.1,0.2,0.1,0.2,0.2c0.1,0.1,0.1,0.2,0.1,0.3c0,0.1,0,0.2,0.1,0.3h0.6l0.1-0.1v-0.3c0-0.2-0.1-0.4-0.2-0.5
	C182.7,34.3,182.6,34.3,182.5,34.3z M182.3,34c0.1-0.1,0.2-0.1,0.2-0.3c0-0.1-0.1-0.2-0.2-0.3c-0.1-0.1-0.2-0.1-0.3-0.1h-0.2v0.6
	h0.2C182.1,34.1,182.2,34.1,182.3,34z M182.5,34.3c0.2,0,0.3-0.1,0.4-0.2c0.1-0.1,0.2-0.3,0.2-0.4c0-0.2-0.1-0.4-0.3-0.5
	c-0.2-0.1-0.3-0.1-0.4-0.1h-1.1v2.2h0.5v-0.8h0.2c0.1,0,0.2,0,0.2,0.1c0.1,0.1,0.2,0.1,0.2,0.2c0.1,0.1,0.1,0.2,0.1,0.3
	c0,0.1,0,0.2,0.1,0.3h0.6l0.1-0.1v-0.3c0-0.2-0.1-0.4-0.2-0.5C182.7,34.3,182.6,34.3,182.5,34.3z M182.3,34c0.1-0.1,0.2-0.1,0.2-0.3
	c0-0.1-0.1-0.2-0.2-0.3c-0.1-0.1-0.2-0.1-0.3-0.1h-0.2v0.6h0.2C182.1,34.1,182.2,34.1,182.3,34z M182.5,34.3c0.2,0,0.3-0.1,0.4-0.2
	c0.1-0.1,0.2-0.3,0.2-0.4c0-0.2-0.1-0.4-0.3-0.5c-0.2-0.1-0.3-0.1-0.4-0.1h-1.1v2.2h0.5v-0.8h0.2c0.1,0,0.2,0,0.2,0.1
	c0.1,0.1,0.2,0.1,0.2,0.2c0.1,0.1,0.1,0.2,0.1,0.3c0,0.1,0,0.2,0.1,0.3h0.6l0.1-0.1v-0.3c0-0.2-0.1-0.4-0.2-0.5
	C182.7,34.3,182.6,34.3,182.5,34.3z M182.3,34c0.1-0.1,0.2-0.1,0.2-0.3c0-0.1-0.1-0.2-0.2-0.3c-0.1-0.1-0.2-0.1-0.3-0.1h-0.2v0.6
	h0.2C182.1,34.1,182.2,34.1,182.3,34z M182.5,34.3c0.2,0,0.3-0.1,0.4-0.2c0.1-0.1,0.2-0.3,0.2-0.4c0-0.2-0.1-0.4-0.3-0.5
	c-0.2-0.1-0.3-0.1-0.4-0.1h-1.1v2.2h0.5v-0.8h0.2c0.1,0,0.2,0,0.2,0.1c0.1,0.1,0.2,0.1,0.2,0.2c0.1,0.1,0.1,0.2,0.1,0.3
	c0,0.1,0,0.2,0.1,0.3h0.6l0.1-0.1v-0.3c0-0.2-0.1-0.4-0.2-0.5C182.7,34.3,182.6,34.3,182.5,34.3z M182.3,34c0.1-0.1,0.2-0.1,0.2-0.3
	c0-0.1-0.1-0.2-0.2-0.3c-0.1-0.1-0.2-0.1-0.3-0.1h-0.2v0.6h0.2C182.1,34.1,182.2,34.1,182.3,34z M182.5,34.3c0.2,0,0.3-0.1,0.4-0.2
	c0.1-0.1,0.2-0.3,0.2-0.4c0-0.2-0.1-0.4-0.3-0.5c-0.2-0.1-0.3-0.1-0.4-0.1h-1.1v2.2h0.5v-0.8h0.2c0.1,0,0.2,0,0.2,0.1
	c0.1,0.1,0.2,0.1,0.2,0.2c0.1,0.1,0.1,0.2,0.1,0.3c0,0.1,0,0.2,0.1,0.3h0.6l0.1-0.1v-0.3c0-0.2-0.1-0.4-0.2-0.5
	C182.7,34.3,182.6,34.3,182.5,34.3z M182.3,34c0.1-0.1,0.2-0.1,0.2-0.3c0-0.1-0.1-0.2-0.2-0.3c-0.1-0.1-0.2-0.1-0.3-0.1h-0.2v0.6
	h0.2C182.1,34.1,182.2,34.1,182.3,34z M182.5,34.3c0.2,0,0.3-0.1,0.4-0.2c0.1-0.1,0.2-0.3,0.2-0.4c0-0.2-0.1-0.4-0.3-0.5
	c-0.2-0.1-0.3-0.1-0.4-0.1h-1.1v2.2h0.5v-0.8h0.2c0.1,0,0.2,0,0.2,0.1c0.1,0.1,0.2,0.1,0.2,0.2c0.1,0.1,0.1,0.2,0.1,0.3
	c0,0.1,0,0.2,0.1,0.3h0.6l0.1-0.1v-0.3c0-0.2-0.1-0.4-0.2-0.5C182.7,34.3,182.6,34.3,182.5,34.3z M182.3,34c0.1-0.1,0.2-0.1,0.2-0.3
	c0-0.1-0.1-0.2-0.2-0.3c-0.1-0.1-0.2-0.1-0.3-0.1h-0.2v0.6h0.2C182.1,34.1,182.2,34.1,182.3,34z M182.5,34.3c0.2,0,0.3-0.1,0.4-0.2
	c0.1-0.1,0.2-0.3,0.2-0.4c0-0.2-0.1-0.4-0.3-0.5c-0.2-0.1-0.3-0.1-0.4-0.1h-1.1v2.2h0.5v-0.8h0.2c0.1,0,0.2,0,0.2,0.1
	c0.1,0.1,0.2,0.1,0.2,0.2c0.1,0.1,0.1,0.2,0.1,0.3c0,0.1,0,0.2,0.1,0.3h0.6l-0.1-0.1c0.1,0,0.1-0.1,0.1-0.1V35
	c0-0.2-0.1-0.4-0.2-0.5C182.7,34.3,182.6,34.3,182.5,34.3z M182.3,34c0.1-0.1,0.2-0.1,0.2-0.3c0-0.1-0.1-0.2-0.2-0.3
	c-0.1-0.1-0.2-0.1-0.3-0.1h-0.2v0.6h0.2C182.1,34.1,182.2,34.1,182.3,34z"/>
<path id="Path" class="st1" d="M12.7,33.3c0,0,1-6.1,5.6-8.2c3.8-1.8,9.4-0.1,13.5,2.1c5.6,3,9,7,15.6,7c2.8,0,5.6-1.1,7.6-3v14.7
	c0,2.4-1,4.8-2.7,6.5C50.5,54,48.2,55,45.7,55H9.2c-2.4,0-4.8-1-6.5-2.7C1,50.6,0,48.2,0,45.8V9.2c0-2.4,1-4.8,2.7-6.5S6.8,0,9.2,0
	h36.6c2.4,0,4.8,1,6.5,2.7S55,6.8,55,9.2V24l-5.5-4.3c0,0-0.5,7.2-5.8,9.1c-4.5,1.6-10.8-2.1-13.2-3.7c-7.2-4.7-12.7-5.8-16.6-5.8
	c-4.6-0.1-8.7,2.8-10.2,7.2L12.7,33.3z"/>
</svg>
